<svg xmlns="http://www.w3.org/2000/svg" viewBox="0 0 300 300" width="300" height="300"><rect width="300" height="300" fill="#0a1014"/><g transform="translate(150 150) scale(2.73)" fill="none" stroke-linecap="round"><polyline points="0,24.46 -19.68,20.83" stroke="rgba(70,210,170,0.55)" stroke-width="0.7"/><polyline points="0,-28.92 -19.68,20.83" stroke="rgba(70,210,170,0.55)" stroke-width="0.7"/><polyline points="-19.68,20.83 -17.18,22.19" stroke="rgba(70,210,170,0.55)" stroke-width="0.7"/><polyline points="0,24.46 -17.18,22.19" stroke="rgba(70,210,170,0.55)" stroke-width="0.7"/><polyline points="0,-28.92 -17.18,22.19" stroke="rgba(70,210,170,0.55)" stroke-width="0.7"/><polyline points="-17.18,22.19 -14.53,23.36" stroke="rgba(70,210,170,0.55)" stroke-width="0.7"/><polyline points="0,24.46 -14.53,23.36" stroke="rgba(70,210,170,0.55)" stroke-width="0.7"/><polyline points="0,-28.92 -14.53,23.36" stroke="rgba(70,210,170,0.55)" stroke-width="0.7"/><polyline points="-14.53,23.36 -11.74,24.33" stroke="rgba(70,210,170,0.55)" stroke-width="0.7"/><polyline points="0,24.46 -11.74,24.33" stroke="rgba(70,210,170,0.55)" stroke-width="0.7"/><polyline points="0,-28.92 -11.74,24.33" stroke="rgba(70,210,170,0.55)" stroke-width="0.7"/><polyline points="-11.74,24.33 -8.83,25.09" stroke="rgba(70,210,170,0.55)" stroke-width="0.7"/><polyline points="0,24.46 -8.83,25.09" stroke="rgba(70,210,170,0.55)" stroke-width="0.7"/><polyline points="0,-28.92 -8.83,25.09" stroke="rgba(70,210,170,0.55)" stroke-width="0.7"/><polyline points="-8.83,25.09 -5.84,25.63" stroke="rgba(70,210,170,0.55)" stroke-width="0.7"/><polyline points="0,24.46 -5.84,25.63" stroke="rgba(70,210,170,0.55)" stroke-width="0.7"/><polyline points="0,-28.92 -5.84,25.63" stroke="rgba(70,210,170,0.55)" stroke-width="0.7"/><polyline points="-5.84,25.63 -2.8,25.95" stroke="rgba(70,210,170,0.55)" stroke-width="0.7"/><polyline points="0,24.46 -2.8,25.95" stroke="rgba(70,210,170,0.55)" stroke-width="0.7"/><polyline points="0,-28.92 -2.8,25.95" stroke="rgba(70,210,170,0.55)" stroke-width="0.7"/><polyline points="-2.8,25.95 0.28,26.05" stroke="rgba(70,210,170,0.55)" stroke-width="0.7"/><polyline points="0,24.46 0.28,26.05" stroke="rgba(70,210,170,0.55)" stroke-width="0.7"/><polyline points="0,-28.92 0.28,26.05" stroke="rgba(70,210,170,0.55)" stroke-width="0.7"/><polyline points="0.28,26.05 3.35,25.91" stroke="rgba(70,210,170,0.55)" stroke-width="0.7"/><polyline points="0,24.46 3.35,25.91" stroke="rgba(70,210,170,0.55)" stroke-width="0.7"/><polyline points="0,-28.92 3.35,25.91" stroke="rgba(70,210,170,0.55)" stroke-width="0.7"/><polyline points="3.35,25.91 6.39,25.55" stroke="rgba(70,210,170,0.55)" stroke-width="0.7"/><polyline points="0,24.46 6.39,25.55" stroke="rgba(70,210,170,0.55)" stroke-width="0.7"/><polyline points="0,-28.92 6.39,25.55" stroke="rgba(70,210,170,0.55)" stroke-width="0.7"/><polyline points="6.39,25.55 9.36,24.97" stroke="rgba(70,210,170,0.55)" stroke-width="0.7"/><polyline points="0,24.46 9.36,24.97" stroke="rgba(70,210,170,0.55)" stroke-width="0.7"/><polyline points="0,-28.92 9.36,24.97" stroke="rgba(70,210,170,0.55)" stroke-width="0.7"/><polyline points="9.36,24.97 12.25,24.17" stroke="rgba(70,210,170,0.55)" stroke-width="0.7"/><polyline points="0,24.46 12.25,24.17" stroke="rgba(70,210,170,0.55)" stroke-width="0.7"/><polyline points="0,-28.92 12.25,24.17" stroke="rgba(70,210,170,0.55)" stroke-width="0.7"/><polyline points="12.25,24.17 15.02,23.16" stroke="rgba(70,210,170,0.55)" stroke-width="0.7"/><polyline points="0,24.46 15.02,23.16" stroke="rgba(70,210,170,0.55)" stroke-width="0.7"/><polyline points="0,-28.92 15.02,23.16" stroke="rgba(70,210,170,0.55)" stroke-width="0.7"/><polyline points="15.02,23.16 17.65,21.96" stroke="rgba(70,210,170,0.55)" stroke-width="0.7"/><polyline points="0,24.46 17.65,21.96" stroke="rgba(70,210,170,0.55)" stroke-width="0.7"/><polyline points="0,-28.92 17.65,21.96" stroke="rgba(70,210,170,0.55)" stroke-width="0.7"/><polyline points="17.65,21.96 20.11,20.57" stroke="rgba(70,210,170,0.55)" stroke-width="0.7"/><polyline points="0,24.46 20.11,20.57" stroke="rgba(70,210,170,0.55)" stroke-width="0.7"/><polyline points="0,-28.92 20.11,20.57" stroke="rgba(70,210,170,0.55)" stroke-width="0.7"/><polyline points="20.11,20.57 22.38,19.02" stroke="rgba(70,210,170,0.55)" stroke-width="0.7"/><polyline points="0,24.46 22.38,19.02" stroke="rgba(70,210,170,0.55)" stroke-width="0.7"/><polyline points="0,-28.92 22.38,19.02" stroke="rgba(70,210,170,0.55)" stroke-width="0.7"/><polyline points="22.38,19.02 24.44,17.31" stroke="rgba(70,210,170,0.55)" stroke-width="0.7"/><polyline points="0,24.46 24.44,17.31" stroke="rgba(70,210,170,0.55)" stroke-width="0.7"/><polyline points="0,-28.92 24.44,17.31" stroke="rgba(70,210,170,0.55)" stroke-width="0.7"/><polyline points="24.44,17.31 26.28,15.46" stroke="rgba(70,210,170,0.55)" stroke-width="0.7"/><polyline points="0,24.46 26.28,15.46" stroke="rgba(70,210,170,0.55)" stroke-width="0.7"/><polyline points="0,-28.92 26.28,15.46" stroke="rgba(70,210,170,0.55)" stroke-width="0.7"/><polyline points="26.28,15.46 27.88,13.5" stroke="rgba(70,210,170,0.55)" stroke-width="0.7"/><polyline points="0,24.46 27.88,13.5" stroke="rgba(70,210,170,0.55)" stroke-width="0.7"/><polyline points="0,-28.92 27.88,13.5" stroke="rgba(70,210,170,0.55)" stroke-width="0.7"/><polyline points="27.88,13.5 29.24,11.44" stroke="rgba(70,210,170,0.55)" stroke-width="0.7"/><polyline points="0,24.46 29.24,11.44" stroke="rgba(70,210,170,0.55)" stroke-width="0.7"/><polyline points="0,-28.92 29.24,11.44" stroke="rgba(70,210,170,0.55)" stroke-width="0.7"/><polyline points="29.24,11.44 30.33,9.3" stroke="rgba(70,210,170,0.55)" stroke-width="0.7"/><polyline points="0,24.46 30.33,9.3" stroke="rgba(70,210,170,0.55)" stroke-width="0.7"/><polyline points="0,-28.92 30.33,9.3" stroke="rgba(70,210,170,0.55)" stroke-width="0.7"/><polyline points="30.33,9.3 31.15,7.11" stroke="rgba(70,210,170,0.55)" stroke-width="0.7"/><polyline points="0,24.46 31.15,7.11" stroke="rgba(70,210,170,0.55)" stroke-width="0.7"/><polyline points="0,-28.92 31.15,7.11" stroke="rgba(70,210,170,0.55)" stroke-width="0.7"/><polyline points="31.15,7.11 31.71,4.87" stroke="rgba(70,210,170,0.55)" stroke-width="0.7"/><polyline points="0,24.46 31.71,4.87" stroke="rgba(70,210,170,0.55)" stroke-width="0.7"/><polyline points="0,-28.92 31.71,4.87" stroke="rgba(70,210,170,0.55)" stroke-width="0.7"/><polyline points="31.71,4.87 32,2.61" stroke="rgba(70,210,170,0.55)" stroke-width="0.7"/><polyline points="0,24.46 32,2.61" stroke="rgba(70,210,170,0.55)" stroke-width="0.7"/><polyline points="0,-28.92 32,2.61" stroke="rgba(70,210,170,0.55)" stroke-width="0.7"/><polyline points="32,2.61 32.02,0.36" stroke="rgba(70,210,170,0.55)" stroke-width="0.7"/><polyline points="0,24.46 32.02,0.36" stroke="rgba(70,210,170,0.55)" stroke-width="0.7"/><polyline points="0,-28.92 32.02,0.36" stroke="rgba(70,210,170,0.55)" stroke-width="0.7"/><polyline points="32.02,0.36 31.78,-1.88" stroke="rgba(70,210,170,0.55)" stroke-width="0.7"/><polyline points="0,24.46 31.78,-1.88" stroke="rgba(70,210,170,0.55)" stroke-width="0.7"/><polyline points="0,-28.92 31.78,-1.88" stroke="rgba(70,210,170,0.55)" stroke-width="0.7"/><polyline points="31.78,-1.88 31.27,-4.08" stroke="rgba(70,210,170,0.55)" stroke-width="0.7"/><polyline points="0,24.46 31.27,-4.08" stroke="rgba(70,210,170,0.55)" stroke-width="0.7"/><polyline points="0,-28.92 31.27,-4.08" stroke="rgba(70,210,170,0.55)" stroke-width="0.7"/><polyline points="31.27,-4.08 30.52,-6.22" stroke="rgba(70,210,170,0.55)" stroke-width="0.7"/><polyline points="0,24.46 30.52,-6.22" stroke="rgba(70,210,170,0.55)" stroke-width="0.7"/><polyline points="0,-28.92 30.52,-6.22" stroke="rgba(70,210,170,0.55)" stroke-width="0.7"/><polyline points="30.52,-6.22 29.53,-8.3" stroke="rgba(70,210,170,0.55)" stroke-width="0.7"/><polyline points="0,24.46 29.53,-8.3" stroke="rgba(70,210,170,0.55)" stroke-width="0.7"/><polyline points="0,-28.92 29.53,-8.3" stroke="rgba(70,210,170,0.55)" stroke-width="0.7"/><polyline points="29.53,-8.3 28.3,-10.29" stroke="rgba(70,210,170,0.55)" stroke-width="0.7"/><polyline points="0,24.46 28.3,-10.29" stroke="rgba(70,210,170,0.55)" stroke-width="0.7"/><polyline points="0,-28.92 28.3,-10.29" stroke="rgba(70,210,170,0.55)" stroke-width="0.7"/><polyline points="28.3,-10.29 26.86,-12.18" stroke="rgba(70,210,170,0.55)" stroke-width="0.7"/><polyline points="0,24.46 26.86,-12.18" stroke="rgba(70,210,170,0.55)" stroke-width="0.7"/><polyline points="0,-28.92 26.86,-12.18" stroke="rgba(70,210,170,0.55)" stroke-width="0.7"/><polyline points="26.86,-12.18 25.21,-13.96" stroke="rgba(70,210,170,0.55)" stroke-width="0.7"/><polyline points="0,24.46 25.21,-13.96" stroke="rgba(70,210,170,0.55)" stroke-width="0.7"/><polyline points="0,-28.92 25.21,-13.96" stroke="rgba(70,210,170,0.55)" stroke-width="0.7"/><polyline points="25.21,-13.96 23.37,-15.61" stroke="rgba(70,210,170,0.55)" stroke-width="0.7"/><polyline points="0,24.46 23.37,-15.61" stroke="rgba(70,210,170,0.55)" stroke-width="0.7"/><polyline points="0,-28.92 23.37,-15.61" stroke="rgba(70,210,170,0.55)" stroke-width="0.7"/><polyline points="23.37,-15.61 21.36,-17.12" stroke="rgba(70,210,170,0.55)" stroke-width="0.7"/><polyline points="0,24.46 21.36,-17.12" stroke="rgba(70,210,170,0.55)" stroke-width="0.7"/><polyline points="0,-28.92 21.36,-17.12" stroke="rgba(70,210,170,0.55)" stroke-width="0.7"/><polyline points="21.36,-17.12 19.19,-18.49" stroke="rgba(70,210,170,0.55)" stroke-width="0.7"/><polyline points="0,24.46 19.19,-18.49" stroke="rgba(70,210,170,0.55)" stroke-width="0.7"/><polyline points="0,-28.92 19.19,-18.49" stroke="rgba(70,210,170,0.55)" stroke-width="0.7"/><polyline points="19.19,-18.49 16.89,-19.71" stroke="rgba(70,210,170,0.55)" stroke-width="0.7"/><polyline points="0,24.46 16.89,-19.71" stroke="rgba(70,210,170,0.55)" stroke-width="0.7"/><polyline points="0,-28.92 16.89,-19.71" stroke="rgba(70,210,170,0.55)" stroke-width="0.7"/><polyline points="16.89,-19.71 14.46,-20.76" stroke="rgba(70,210,170,0.55)" stroke-width="0.7"/><polyline points="0,24.46 14.46,-20.76" stroke="rgba(70,210,170,0.55)" stroke-width="0.7"/><polyline points="0,-28.92 14.46,-20.76" stroke="rgba(70,210,170,0.55)" stroke-width="0.7"/><polyline points="14.46,-20.76 11.92,-21.64" stroke="rgba(70,210,170,0.55)" stroke-width="0.7"/><polyline points="0,24.46 11.92,-21.64" stroke="rgba(70,210,170,0.55)" stroke-width="0.7"/><polyline points="0,-28.92 11.92,-21.64" stroke="rgba(70,210,170,0.55)" stroke-width="0.7"/><polyline points="11.92,-21.64 9.31,-22.35" stroke="rgba(70,210,170,0.55)" stroke-width="0.7"/><polyline points="0,24.46 9.31,-22.35" stroke="rgba(70,210,170,0.55)" stroke-width="0.7"/><polyline points="0,-28.92 9.31,-22.35" stroke="rgba(70,210,170,0.55)" stroke-width="0.7"/><polyline points="9.31,-22.35 6.62,-22.89" stroke="rgba(70,210,170,0.55)" stroke-width="0.7"/><polyline points="0,24.46 6.62,-22.89" stroke="rgba(70,210,170,0.55)" stroke-width="0.7"/><polyline points="0,-28.92 6.62,-22.89" stroke="rgba(70,210,170,0.55)" stroke-width="0.7"/><polyline points="6.62,-22.89 3.89,-23.24" stroke="rgba(70,210,170,0.55)" stroke-width="0.7"/><polyline points="0,24.46 3.89,-23.24" stroke="rgba(70,210,170,0.55)" stroke-width="0.7"/><polyline points="0,-28.92 3.89,-23.24" stroke="rgba(70,210,170,0.55)" stroke-width="0.7"/><polyline points="3.89,-23.24 1.13,-23.4" stroke="rgba(70,210,170,0.55)" stroke-width="0.7"/><polyline points="0,24.46 1.13,-23.4" stroke="rgba(70,210,170,0.55)" stroke-width="0.7"/><polyline points="0,-28.92 1.13,-23.4" stroke="rgba(70,210,170,0.55)" stroke-width="0.7"/><polyline points="1.13,-23.4 -1.63,-23.39" stroke="rgba(70,210,170,0.55)" stroke-width="0.7"/><polyline points="0,24.46 -1.63,-23.39" stroke="rgba(70,210,170,0.55)" stroke-width="0.7"/><polyline points="0,-28.92 -1.63,-23.39" stroke="rgba(70,210,170,0.55)" stroke-width="0.7"/><polyline points="-1.63,-23.39 -4.39,-23.19" stroke="rgba(70,210,170,0.55)" stroke-width="0.7"/><polyline points="0,24.46 -4.39,-23.19" stroke="rgba(70,210,170,0.55)" stroke-width="0.7"/><polyline points="0,-28.92 -4.39,-23.19" stroke="rgba(70,210,170,0.55)" stroke-width="0.7"/><polyline points="-4.39,-23.19 -7.11,-22.8" stroke="rgba(70,210,170,0.55)" stroke-width="0.7"/><polyline points="0,24.46 -7.11,-22.8" stroke="rgba(70,210,170,0.55)" stroke-width="0.7"/><polyline points="0,-28.92 -7.11,-22.8" stroke="rgba(70,210,170,0.55)" stroke-width="0.7"/><polyline points="-7.11,-22.8 -9.78,-22.24" stroke="rgba(70,210,170,0.55)" stroke-width="0.7"/><polyline points="0,24.46 -9.78,-22.24" stroke="rgba(70,210,170,0.55)" stroke-width="0.7"/><polyline points="0,-28.92 -9.78,-22.24" stroke="rgba(70,210,170,0.55)" stroke-width="0.7"/><polyline points="-9.78,-22.24 -12.39,-21.5" stroke="rgba(70,210,170,0.55)" stroke-width="0.7"/><polyline points="0,24.46 -12.39,-21.5" stroke="rgba(70,210,170,0.55)" stroke-width="0.7"/><polyline points="0,-28.92 -12.39,-21.5" stroke="rgba(70,210,170,0.55)" stroke-width="0.7"/><polyline points="-12.39,-21.5 -14.9,-20.58" stroke="rgba(70,210,170,0.55)" stroke-width="0.7"/><polyline points="0,24.46 -14.9,-20.58" stroke="rgba(70,210,170,0.55)" stroke-width="0.7"/><polyline points="0,-28.92 -14.9,-20.58" stroke="rgba(70,210,170,0.55)" stroke-width="0.7"/><polyline points="-14.9,-20.58 -17.31,-19.5" stroke="rgba(70,210,170,0.55)" stroke-width="0.7"/><polyline points="0,24.46 -17.31,-19.5" stroke="rgba(70,210,170,0.55)" stroke-width="0.7"/><polyline points="0,-28.92 -17.31,-19.5" stroke="rgba(70,210,170,0.55)" stroke-width="0.7"/><polyline points="-17.31,-19.5 -19.6,-18.26" stroke="rgba(70,210,170,0.55)" stroke-width="0.7"/><polyline points="0,24.46 -19.6,-18.26" stroke="rgba(70,210,170,0.55)" stroke-width="0.7"/><polyline points="0,-28.92 -19.6,-18.26" stroke="rgba(70,210,170,0.55)" stroke-width="0.7"/><polyline points="-19.6,-18.26 -21.74,-16.86" stroke="rgba(70,210,170,0.55)" stroke-width="0.7"/><polyline points="0,24.46 -21.74,-16.86" stroke="rgba(70,210,170,0.55)" stroke-width="0.7"/><polyline points="0,-28.92 -21.74,-16.86" stroke="rgba(70,210,170,0.55)" stroke-width="0.7"/><polyline points="-21.74,-16.86 -23.72,-15.32" stroke="rgba(70,210,170,0.55)" stroke-width="0.7"/><polyline points="0,24.46 -23.72,-15.32" stroke="rgba(70,210,170,0.55)" stroke-width="0.7"/><polyline points="0,-28.92 -23.72,-15.32" stroke="rgba(70,210,170,0.55)" stroke-width="0.7"/><polyline points="-23.72,-15.32 -25.52,-13.64" stroke="rgba(70,210,170,0.55)" stroke-width="0.7"/><polyline points="0,24.46 -25.52,-13.64" stroke="rgba(70,210,170,0.55)" stroke-width="0.7"/><polyline points="0,-28.92 -25.52,-13.64" stroke="rgba(70,210,170,0.55)" stroke-width="0.7"/><polyline points="-25.52,-13.64 -27.13,-11.85" stroke="rgba(70,210,170,0.55)" stroke-width="0.7"/><polyline points="0,24.46 -27.13,-11.85" stroke="rgba(70,210,170,0.55)" stroke-width="0.7"/><polyline points="0,-28.92 -27.13,-11.85" stroke="rgba(70,210,170,0.55)" stroke-width="0.7"/><polyline points="-27.13,-11.85 -28.54,-9.94" stroke="rgba(70,210,170,0.55)" stroke-width="0.7"/><polyline points="0,24.46 -28.54,-9.94" stroke="rgba(70,210,170,0.55)" stroke-width="0.7"/><polyline points="0,-28.92 -28.54,-9.94" stroke="rgba(70,210,170,0.55)" stroke-width="0.7"/><polyline points="-28.54,-9.94 -29.72,-7.93" stroke="rgba(70,210,170,0.55)" stroke-width="0.7"/><polyline points="0,24.46 -29.72,-7.93" stroke="rgba(70,210,170,0.55)" stroke-width="0.7"/><polyline points="0,-28.92 -29.72,-7.93" stroke="rgba(70,210,170,0.55)" stroke-width="0.7"/><polyline points="-29.72,-7.93 -30.68,-5.84" stroke="rgba(70,210,170,0.55)" stroke-width="0.7"/><polyline points="0,24.46 -30.68,-5.84" stroke="rgba(70,210,170,0.55)" stroke-width="0.7"/><polyline points="0,-28.92 -30.68,-5.84" stroke="rgba(70,210,170,0.55)" stroke-width="0.7"/><polyline points="-30.68,-5.84 -31.38,-3.68" stroke="rgba(70,210,170,0.55)" stroke-width="0.7"/><polyline points="0,24.46 -31.38,-3.68" stroke="rgba(70,210,170,0.55)" stroke-width="0.7"/><polyline points="0,-28.92 -31.38,-3.68" stroke="rgba(70,210,170,0.55)" stroke-width="0.7"/><polyline points="-31.38,-3.68 -31.84,-1.48" stroke="rgba(70,210,170,0.55)" stroke-width="0.7"/><polyline points="0,24.46 -31.84,-1.48" stroke="rgba(70,210,170,0.55)" stroke-width="0.7"/><polyline points="0,-28.92 -31.84,-1.48" stroke="rgba(70,210,170,0.55)" stroke-width="0.7"/><polyline points="-31.84,-1.48 -32.04,0.77" stroke="rgba(70,210,170,0.55)" stroke-width="0.7"/><polyline points="0,24.46 -32.04,0.77" stroke="rgba(70,210,170,0.55)" stroke-width="0.7"/><polyline points="0,-28.92 -32.04,0.77" stroke="rgba(70,210,170,0.55)" stroke-width="0.7"/><polyline points="-32.04,0.77 -31.97,3.02" stroke="rgba(70,210,170,0.55)" stroke-width="0.7"/><polyline points="0,24.46 -31.97,3.02" stroke="rgba(70,210,170,0.55)" stroke-width="0.7"/><polyline points="0,-28.92 -31.97,3.02" stroke="rgba(70,210,170,0.55)" stroke-width="0.7"/><polyline points="-31.97,3.02 -31.63,5.28" stroke="rgba(70,210,170,0.55)" stroke-width="0.7"/><polyline points="0,24.46 -31.63,5.28" stroke="rgba(70,210,170,0.55)" stroke-width="0.7"/><polyline points="0,-28.92 -31.63,5.28" stroke="rgba(70,210,170,0.55)" stroke-width="0.7"/><polyline points="-31.63,5.28 -31.02,7.51" stroke="rgba(70,210,170,0.55)" stroke-width="0.7"/><polyline points="0,24.46 -31.02,7.51" stroke="rgba(70,210,170,0.55)" stroke-width="0.7"/><polyline points="0,-28.92 -31.02,7.51" stroke="rgba(70,210,170,0.55)" stroke-width="0.7"/><polyline points="-31.02,7.51 -30.15,9.69" stroke="rgba(70,210,170,0.55)" stroke-width="0.7"/><polyline points="0,24.46 -30.15,9.69" stroke="rgba(70,210,170,0.55)" stroke-width="0.7"/><polyline points="0,-28.92 -30.15,9.69" stroke="rgba(70,210,170,0.55)" stroke-width="0.7"/><polyline points="-30.15,9.69 -29.01,11.82" stroke="rgba(70,210,170,0.55)" stroke-width="0.7"/><polyline points="0,24.46 -29.01,11.82" stroke="rgba(70,210,170,0.55)" stroke-width="0.7"/><polyline points="0,-28.92 -29.01,11.82" stroke="rgba(70,210,170,0.55)" stroke-width="0.7"/><polyline points="-29.01,11.82 -27.61,13.86" stroke="rgba(70,210,170,0.55)" stroke-width="0.7"/><polyline points="0,24.46 -27.61,13.86" stroke="rgba(70,210,170,0.55)" stroke-width="0.7"/><polyline points="0,-28.92 -27.61,13.86" stroke="rgba(70,210,170,0.55)" stroke-width="0.7"/><polyline points="-27.61,13.86 -25.97,15.81" stroke="rgba(70,210,170,0.55)" stroke-width="0.7"/><polyline points="0,24.46 -25.97,15.81" stroke="rgba(70,210,170,0.55)" stroke-width="0.7"/><polyline points="0,-28.92 -25.97,15.81" stroke="rgba(70,210,170,0.55)" stroke-width="0.7"/><polyline points="-25.97,15.81 -24.09,17.63" stroke="rgba(70,210,170,0.55)" stroke-width="0.7"/><polyline points="0,24.46 -24.09,17.63" stroke="rgba(70,210,170,0.55)" stroke-width="0.7"/><polyline points="0,-28.92 -24.09,17.63" stroke="rgba(70,210,170,0.55)" stroke-width="0.7"/><polyline points="-24.09,17.63 -21.98,19.31" stroke="rgba(70,210,170,0.55)" stroke-width="0.7"/><polyline points="0,24.46 -21.98,19.31" stroke="rgba(70,210,170,0.55)" stroke-width="0.7"/><polyline points="0,-28.92 -21.98,19.31" stroke="rgba(70,210,170,0.55)" stroke-width="0.7"/><polyline points="-21.98,19.31 -19.68,20.83" stroke="rgba(70,210,170,0.55)" stroke-width="0.7"/><circle cx="0" cy="24.46" r="1.2" fill="rgba(70,210,170,0.85)" stroke="none"/><circle cx="0" cy="-28.92" r="1.2" fill="rgba(70,210,170,0.85)" stroke="none"/><circle cx="-19.68" cy="20.83" r="1.2" fill="rgba(70,210,170,0.85)" stroke="none"/><circle cx="-17.18" cy="22.19" r="1.2" fill="rgba(70,210,170,0.85)" stroke="none"/><circle cx="-14.53" cy="23.36" r="1.2" fill="rgba(70,210,170,0.85)" stroke="none"/><circle cx="-11.74" cy="24.33" r="1.2" fill="rgba(70,210,170,0.85)" stroke="none"/><circle cx="-8.83" cy="25.09" r="1.2" fill="rgba(70,210,170,0.85)" stroke="none"/><circle cx="-5.84" cy="25.63" r="1.2" fill="rgba(70,210,170,0.85)" stroke="none"/><circle cx="-2.8" cy="25.95" r="1.2" fill="rgba(70,210,170,0.85)" stroke="none"/><circle cx="0.28" cy="26.05" r="1.2" fill="rgba(70,210,170,0.85)" stroke="none"/><circle cx="3.35" cy="25.91" r="1.2" fill="rgba(70,210,170,0.85)" stroke="none"/><circle cx="6.39" cy="25.55" r="1.2" fill="rgba(70,210,170,0.85)" stroke="none"/><circle cx="9.36" cy="24.97" r="1.2" fill="rgba(70,210,170,0.85)" stroke="none"/><circle cx="12.25" cy="24.17" r="1.2" fill="rgba(70,210,170,0.85)" stroke="none"/><circle cx="15.02" cy="23.16" r="1.2" fill="rgba(70,210,170,0.85)" stroke="none"/><circle cx="17.65" cy="21.96" r="1.2" fill="rgba(70,210,170,0.85)" stroke="none"/><circle cx="20.11" cy="20.57" r="1.2" fill="rgba(70,210,170,0.85)" stroke="none"/><circle cx="22.38" cy="19.02" r="1.2" fill="rgba(70,210,170,0.85)" stroke="none"/><circle cx="24.44" cy="17.31" r="1.2" fill="rgba(70,210,170,0.85)" stroke="none"/><circle cx="26.28" cy="15.46" r="1.2" fill="rgba(70,210,170,0.85)" stroke="none"/><circle cx="27.88" cy="13.5" r="1.2" fill="rgba(70,210,170,0.85)" stroke="none"/><circle cx="29.24" cy="11.44" r="1.2" fill="rgba(70,210,170,0.85)" stroke="none"/><circle cx="30.33" cy="9.3" r="1.2" fill="rgba(70,210,170,0.85)" stroke="none"/><circle cx="31.15" cy="7.11" r="1.2" fill="rgba(70,210,170,0.85)" stroke="none"/><circle cx="31.71" cy="4.87" r="1.2" fill="rgba(70,210,170,0.85)" stroke="none"/><circle cx="32" cy="2.61" r="1.2" fill="rgba(70,210,170,0.85)" stroke="none"/><circle cx="32.02" cy="0.36" r="1.2" fill="rgba(70,210,170,0.85)" stroke="none"/><circle cx="31.78" cy="-1.88" r="1.2" fill="rgba(70,210,170,0.85)" stroke="none"/><circle cx="31.27" cy="-4.08" r="1.2" fill="rgba(70,210,170,0.85)" stroke="none"/><circle cx="30.52" cy="-6.22" r="1.2" fill="rgba(70,210,170,0.85)" stroke="none"/><circle cx="29.53" cy="-8.3" r="1.2" fill="rgba(70,210,170,0.85)" stroke="none"/><circle cx="28.3" cy="-10.29" r="1.2" fill="rgba(70,210,170,0.85)" stroke="none"/><circle cx="26.86" cy="-12.18" r="1.2" fill="rgba(70,210,170,0.85)" stroke="none"/><circle cx="25.21" cy="-13.96" r="1.2" fill="rgba(70,210,170,0.85)" stroke="none"/><circle cx="23.37" cy="-15.61" r="1.2" fill="rgba(70,210,170,0.85)" stroke="none"/><circle cx="21.36" cy="-17.12" r="1.2" fill="rgba(70,210,170,0.85)" stroke="none"/><circle cx="19.19" cy="-18.49" r="1.2" fill="rgba(70,210,170,0.85)" stroke="none"/><circle cx="16.89" cy="-19.71" r="1.2" fill="rgba(70,210,170,0.85)" stroke="none"/><circle cx="14.46" cy="-20.76" r="1.2" fill="rgba(70,210,170,0.85)" stroke="none"/><circle cx="11.92" cy="-21.64" r="1.2" fill="rgba(70,210,170,0.85)" stroke="none"/><circle cx="9.31" cy="-22.35" r="1.2" fill="rgba(70,210,170,0.85)" stroke="none"/><circle cx="6.62" cy="-22.89" r="1.2" fill="rgba(70,210,170,0.85)" stroke="none"/><circle cx="3.89" cy="-23.24" r="1.2" fill="rgba(70,210,170,0.85)" stroke="none"/><circle cx="1.13" cy="-23.4" r="1.2" fill="rgba(70,210,170,0.85)" stroke="none"/><circle cx="-1.63" cy="-23.39" r="1.2" fill="rgba(70,210,170,0.85)" stroke="none"/><circle cx="-4.39" cy="-23.19" r="1.2" fill="rgba(70,210,170,0.85)" stroke="none"/><circle cx="-7.11" cy="-22.8" r="1.2" fill="rgba(70,210,170,0.85)" stroke="none"/><circle cx="-9.78" cy="-22.24" r="1.2" fill="rgba(70,210,170,0.85)" stroke="none"/><circle cx="-12.39" cy="-21.5" r="1.2" fill="rgba(70,210,170,0.85)" stroke="none"/><circle cx="-14.9" cy="-20.58" r="1.2" fill="rgba(70,210,170,0.85)" stroke="none"/><circle cx="-17.31" cy="-19.5" r="1.2" fill="rgba(70,210,170,0.85)" stroke="none"/><circle cx="-19.6" cy="-18.26" r="1.2" fill="rgba(70,210,170,0.85)" stroke="none"/><circle cx="-21.74" cy="-16.86" r="1.2" fill="rgba(70,210,170,0.85)" stroke="none"/><circle cx="-23.72" cy="-15.32" r="1.2" fill="rgba(70,210,170,0.85)" stroke="none"/><circle cx="-25.52" cy="-13.64" r="1.2" fill="rgba(70,210,170,0.85)" stroke="none"/><circle cx="-27.13" cy="-11.85" r="1.2" fill="rgba(70,210,170,0.85)" stroke="none"/><circle cx="-28.54" cy="-9.94" r="1.2" fill="rgba(70,210,170,0.85)" stroke="none"/><circle cx="-29.72" cy="-7.93" r="1.2" fill="rgba(70,210,170,0.85)" stroke="none"/><circle cx="-30.68" cy="-5.84" r="1.2" fill="rgba(70,210,170,0.85)" stroke="none"/><circle cx="-31.38" cy="-3.68" r="1.2" fill="rgba(70,210,170,0.85)" stroke="none"/><circle cx="-31.84" cy="-1.48" r="1.2" fill="rgba(70,210,170,0.85)" stroke="none"/><circle cx="-32.04" cy="0.77" r="1.2" fill="rgba(70,210,170,0.85)" stroke="none"/><circle cx="-31.97" cy="3.02" r="1.2" fill="rgba(70,210,170,0.85)" stroke="none"/><circle cx="-31.63" cy="5.28" r="1.2" fill="rgba(70,210,170,0.85)" stroke="none"/><circle cx="-31.02" cy="7.51" r="1.2" fill="rgba(70,210,170,0.85)" stroke="none"/><circle cx="-30.15" cy="9.69" r="1.2" fill="rgba(70,210,170,0.85)" stroke="none"/><circle cx="-29.01" cy="11.82" r="1.2" fill="rgba(70,210,170,0.85)" stroke="none"/><circle cx="-27.61" cy="13.86" r="1.2" fill="rgba(70,210,170,0.85)" stroke="none"/><circle cx="-25.97" cy="15.81" r="1.2" fill="rgba(70,210,170,0.85)" stroke="none"/><circle cx="-24.09" cy="17.63" r="1.2" fill="rgba(70,210,170,0.85)" stroke="none"/><circle cx="-21.98" cy="19.31" r="1.2" fill="rgba(70,210,170,0.85)" stroke="none"/></g></svg>