<svg xmlns="http://www.w3.org/2000/svg" viewBox="0 0 300 300" width="300" height="300"><rect width="300" height="300" fill="#0a1014"/><g transform="translate(150 150) scale(2.73)" fill="none" stroke-linecap="round"><polyline points="-18.61,36.84 -12.03,39.95" stroke="rgba(70,210,170,0.55)" stroke-width="0.7"/><polyline points="-17.33,4.69 -9.43,7.23" stroke="rgba(70,210,170,0.55)" stroke-width="0.7"/><polyline points="-18.61,36.84 -17.33,4.69" stroke="rgba(70,210,170,0.55)" stroke-width="0.7"/><polyline points="-18.61,36.84 -24.06,0.79" stroke="rgba(70,210,170,0.55)" stroke-width="0.7"/><polyline points="-12.03,39.95 -4.64,41.65" stroke="rgba(70,210,170,0.55)" stroke-width="0.7"/><polyline points="-9.43,7.23 -0.9,8.21" stroke="rgba(70,210,170,0.55)" stroke-width="0.7"/><polyline points="-12.03,39.95 -9.43,7.23" stroke="rgba(70,210,170,0.55)" stroke-width="0.7"/><polyline points="-12.03,39.95 -17.33,4.69" stroke="rgba(70,210,170,0.55)" stroke-width="0.7"/><polyline points="-4.64,41.65 3.05,41.81" stroke="rgba(70,210,170,0.55)" stroke-width="0.7"/><polyline points="-0.9,8.21 7.7,7.56" stroke="rgba(70,210,170,0.55)" stroke-width="0.7"/><polyline points="-4.64,41.65 -0.9,8.21" stroke="rgba(70,210,170,0.55)" stroke-width="0.7"/><polyline points="-4.64,41.65 -9.43,7.23" stroke="rgba(70,210,170,0.55)" stroke-width="0.7"/><polyline points="3.05,41.81 10.55,40.42" stroke="rgba(70,210,170,0.55)" stroke-width="0.7"/><polyline points="7.7,7.56 15.77,5.33" stroke="rgba(70,210,170,0.55)" stroke-width="0.7"/><polyline points="3.05,41.81 7.7,7.56" stroke="rgba(70,210,170,0.55)" stroke-width="0.7"/><polyline points="3.05,41.81 -0.9,8.21" stroke="rgba(70,210,170,0.55)" stroke-width="0.7"/><polyline points="10.55,40.42 17.34,37.59" stroke="rgba(70,210,170,0.55)" stroke-width="0.7"/><polyline points="15.77,5.33 22.78,1.7" stroke="rgba(70,210,170,0.55)" stroke-width="0.7"/><polyline points="10.55,40.42 15.77,5.33" stroke="rgba(70,210,170,0.55)" stroke-width="0.7"/><polyline points="10.55,40.42 7.7,7.56" stroke="rgba(70,210,170,0.55)" stroke-width="0.7"/><polyline points="17.34,37.59 22.99,33.53" stroke="rgba(70,210,170,0.55)" stroke-width="0.7"/><polyline points="22.78,1.7 28.3,-3.08" stroke="rgba(70,210,170,0.55)" stroke-width="0.7"/><polyline points="17.34,37.59 22.78,1.7" stroke="rgba(70,210,170,0.55)" stroke-width="0.7"/><polyline points="17.34,37.59 15.77,5.33" stroke="rgba(70,210,170,0.55)" stroke-width="0.7"/><polyline points="22.99,33.53 27.17,28.52" stroke="rgba(70,210,170,0.55)" stroke-width="0.7"/><polyline points="28.3,-3.08 32.02,-8.66" stroke="rgba(70,210,170,0.55)" stroke-width="0.7"/><polyline points="22.99,33.53 28.3,-3.08" stroke="rgba(70,210,170,0.55)" stroke-width="0.7"/><polyline points="22.99,33.53 22.78,1.7" stroke="rgba(70,210,170,0.55)" stroke-width="0.7"/><polyline points="27.17,28.52 29.66,22.9" stroke="rgba(70,210,170,0.55)" stroke-width="0.7"/><polyline points="32.02,-8.66 33.76,-14.66" stroke="rgba(70,210,170,0.55)" stroke-width="0.7"/><polyline points="27.17,28.52 32.02,-8.66" stroke="rgba(70,210,170,0.55)" stroke-width="0.7"/><polyline points="27.17,28.52 28.3,-3.08" stroke="rgba(70,210,170,0.55)" stroke-width="0.7"/><polyline points="29.66,22.9 30.37,17.04" stroke="rgba(70,210,170,0.55)" stroke-width="0.7"/><polyline points="33.76,-14.66 33.51,-20.71" stroke="rgba(70,210,170,0.55)" stroke-width="0.7"/><polyline points="29.66,22.9 33.76,-14.66" stroke="rgba(70,210,170,0.55)" stroke-width="0.7"/><polyline points="29.66,22.9 32.02,-8.66" stroke="rgba(70,210,170,0.55)" stroke-width="0.7"/><polyline points="30.37,17.04 29.32,11.28" stroke="rgba(70,210,170,0.55)" stroke-width="0.7"/><polyline points="33.51,-20.71 31.36,-26.48" stroke="rgba(70,210,170,0.55)" stroke-width="0.7"/><polyline points="30.37,17.04 33.51,-20.71" stroke="rgba(70,210,170,0.55)" stroke-width="0.7"/><polyline points="30.37,17.04 33.76,-14.66" stroke="rgba(70,210,170,0.55)" stroke-width="0.7"/><polyline points="29.32,11.28 26.62,5.95" stroke="rgba(70,210,170,0.55)" stroke-width="0.7"/><polyline points="31.36,-26.48 27.48,-31.64" stroke="rgba(70,210,170,0.55)" stroke-width="0.7"/><polyline points="29.32,11.28 31.36,-26.48" stroke="rgba(70,210,170,0.55)" stroke-width="0.7"/><polyline points="29.32,11.28 33.51,-20.71" stroke="rgba(70,210,170,0.55)" stroke-width="0.7"/><polyline points="26.62,5.95 22.48,1.33" stroke="rgba(70,210,170,0.55)" stroke-width="0.7"/><polyline points="27.48,-31.64 22.16,-35.94" stroke="rgba(70,210,170,0.55)" stroke-width="0.7"/><polyline points="26.62,5.95 27.48,-31.64" stroke="rgba(70,210,170,0.55)" stroke-width="0.7"/><polyline points="26.62,5.95 31.36,-26.48" stroke="rgba(70,210,170,0.55)" stroke-width="0.7"/><polyline points="22.48,1.33 17.16,-2.38" stroke="rgba(70,210,170,0.55)" stroke-width="0.7"/><polyline points="22.16,-35.94 15.71,-39.2" stroke="rgba(70,210,170,0.55)" stroke-width="0.7"/><polyline points="22.48,1.33 22.16,-35.94" stroke="rgba(70,210,170,0.55)" stroke-width="0.7"/><polyline points="22.48,1.33 27.48,-31.64" stroke="rgba(70,210,170,0.55)" stroke-width="0.7"/><polyline points="17.16,-2.38 10.96,-4.99" stroke="rgba(70,210,170,0.55)" stroke-width="0.7"/><polyline points="15.71,-39.2 8.46,-41.26" stroke="rgba(70,210,170,0.55)" stroke-width="0.7"/><polyline points="17.16,-2.38 15.71,-39.2" stroke="rgba(70,210,170,0.55)" stroke-width="0.7"/><polyline points="17.16,-2.38 22.16,-35.94" stroke="rgba(70,210,170,0.55)" stroke-width="0.7"/><polyline points="10.96,-4.99 4.2,-6.39" stroke="rgba(70,210,170,0.55)" stroke-width="0.7"/><polyline points="8.46,-41.26 0.8,-42.05" stroke="rgba(70,210,170,0.55)" stroke-width="0.7"/><polyline points="10.96,-4.99 8.46,-41.26" stroke="rgba(70,210,170,0.55)" stroke-width="0.7"/><polyline points="10.96,-4.99 15.71,-39.2" stroke="rgba(70,210,170,0.55)" stroke-width="0.7"/><polyline points="4.2,-6.39 -2.76,-6.52" stroke="rgba(70,210,170,0.55)" stroke-width="0.7"/><polyline points="0.8,-42.05 -6.9,-41.53" stroke="rgba(70,210,170,0.55)" stroke-width="0.7"/><polyline points="4.2,-6.39 0.8,-42.05" stroke="rgba(70,210,170,0.55)" stroke-width="0.7"/><polyline points="4.2,-6.39 8.46,-41.26" stroke="rgba(70,210,170,0.55)" stroke-width="0.7"/><polyline points="-2.76,-6.52 -9.59,-5.38" stroke="rgba(70,210,170,0.55)" stroke-width="0.7"/><polyline points="-6.9,-41.53 -14.26,-39.73" stroke="rgba(70,210,170,0.55)" stroke-width="0.7"/><polyline points="-2.76,-6.52 -6.9,-41.53" stroke="rgba(70,210,170,0.55)" stroke-width="0.7"/><polyline points="-2.76,-6.52 0.8,-42.05" stroke="rgba(70,210,170,0.55)" stroke-width="0.7"/><polyline points="-9.59,-5.38 -15.93,-3.01" stroke="rgba(70,210,170,0.55)" stroke-width="0.7"/><polyline points="-14.26,-39.73 -20.91,-36.71" stroke="rgba(70,210,170,0.55)" stroke-width="0.7"/><polyline points="-9.59,-5.38 -14.26,-39.73" stroke="rgba(70,210,170,0.55)" stroke-width="0.7"/><polyline points="-9.59,-5.38 -6.9,-41.53" stroke="rgba(70,210,170,0.55)" stroke-width="0.7"/><polyline points="-15.93,-3.01 -21.46,0.48" stroke="rgba(70,210,170,0.55)" stroke-width="0.7"/><polyline points="-20.91,-36.71 -26.49,-32.61" stroke="rgba(70,210,170,0.55)" stroke-width="0.7"/><polyline points="-15.93,-3.01 -20.91,-36.71" stroke="rgba(70,210,170,0.55)" stroke-width="0.7"/><polyline points="-15.93,-3.01 -14.26,-39.73" stroke="rgba(70,210,170,0.55)" stroke-width="0.7"/><polyline points="-21.46,0.48 -25.87,4.93" stroke="rgba(70,210,170,0.55)" stroke-width="0.7"/><polyline points="-26.49,-32.61 -30.69,-27.6" stroke="rgba(70,210,170,0.55)" stroke-width="0.7"/><polyline points="-21.46,0.48 -26.49,-32.61" stroke="rgba(70,210,170,0.55)" stroke-width="0.7"/><polyline points="-21.46,0.48 -20.91,-36.71" stroke="rgba(70,210,170,0.55)" stroke-width="0.7"/><polyline points="-25.87,4.93 -28.89,10.13" stroke="rgba(70,210,170,0.55)" stroke-width="0.7"/><polyline points="-30.69,-27.6 -33.22,-21.94" stroke="rgba(70,210,170,0.55)" stroke-width="0.7"/><polyline points="-25.87,4.93 -30.69,-27.6" stroke="rgba(70,210,170,0.55)" stroke-width="0.7"/><polyline points="-25.87,4.93 -26.49,-32.61" stroke="rgba(70,210,170,0.55)" stroke-width="0.7"/><polyline points="-28.89,10.13 -30.3,15.83" stroke="rgba(70,210,170,0.55)" stroke-width="0.7"/><polyline points="-33.22,-21.94 -33.87,-15.92" stroke="rgba(70,210,170,0.55)" stroke-width="0.7"/><polyline points="-28.89,10.13 -33.22,-21.94" stroke="rgba(70,210,170,0.55)" stroke-width="0.7"/><polyline points="-28.89,10.13 -30.69,-27.6" stroke="rgba(70,210,170,0.55)" stroke-width="0.7"/><polyline points="-30.3,15.83 -29.96,21.69" stroke="rgba(70,210,170,0.55)" stroke-width="0.7"/><polyline points="-33.87,-15.92 -32.54,-9.88" stroke="rgba(70,210,170,0.55)" stroke-width="0.7"/><polyline points="-30.3,15.83 -33.87,-15.92" stroke="rgba(70,210,170,0.55)" stroke-width="0.7"/><polyline points="-30.3,15.83 -33.22,-21.94" stroke="rgba(70,210,170,0.55)" stroke-width="0.7"/><polyline points="-29.96,21.69 -27.83,27.39" stroke="rgba(70,210,170,0.55)" stroke-width="0.7"/><polyline points="-32.54,-9.88 -29.23,-4.18" stroke="rgba(70,210,170,0.55)" stroke-width="0.7"/><polyline points="-29.96,21.69 -32.54,-9.88" stroke="rgba(70,210,170,0.55)" stroke-width="0.7"/><polyline points="-29.96,21.69 -33.87,-15.92" stroke="rgba(70,210,170,0.55)" stroke-width="0.7"/><polyline points="-27.83,27.39 -23.99,32.55" stroke="rgba(70,210,170,0.55)" stroke-width="0.7"/><polyline points="-29.23,-4.18 -24.06,0.79" stroke="rgba(70,210,170,0.55)" stroke-width="0.7"/><polyline points="-27.83,27.39 -29.23,-4.18" stroke="rgba(70,210,170,0.55)" stroke-width="0.7"/><polyline points="-27.83,27.39 -32.54,-9.88" stroke="rgba(70,210,170,0.55)" stroke-width="0.7"/><polyline points="-23.99,32.55 -18.61,36.84" stroke="rgba(70,210,170,0.55)" stroke-width="0.7"/><polyline points="-24.06,0.79 -17.33,4.69" stroke="rgba(70,210,170,0.55)" stroke-width="0.7"/><polyline points="-23.99,32.55 -24.06,0.79" stroke="rgba(70,210,170,0.55)" stroke-width="0.7"/><polyline points="-23.99,32.55 -29.23,-4.18" stroke="rgba(70,210,170,0.55)" stroke-width="0.7"/><circle cx="-18.61" cy="36.84" r="1.2" fill="rgba(70,210,170,0.85)" stroke="none"/><circle cx="-12.03" cy="39.95" r="1.2" fill="rgba(70,210,170,0.85)" stroke="none"/><circle cx="-4.64" cy="41.65" r="1.2" fill="rgba(70,210,170,0.85)" stroke="none"/><circle cx="3.05" cy="41.81" r="1.2" fill="rgba(70,210,170,0.85)" stroke="none"/><circle cx="10.55" cy="40.42" r="1.2" fill="rgba(70,210,170,0.85)" stroke="none"/><circle cx="17.34" cy="37.59" r="1.2" fill="rgba(70,210,170,0.85)" stroke="none"/><circle cx="22.99" cy="33.53" r="1.2" fill="rgba(70,210,170,0.85)" stroke="none"/><circle cx="27.17" cy="28.52" r="1.2" fill="rgba(70,210,170,0.85)" stroke="none"/><circle cx="29.66" cy="22.9" r="1.2" fill="rgba(70,210,170,0.85)" stroke="none"/><circle cx="30.37" cy="17.04" r="1.2" fill="rgba(70,210,170,0.85)" stroke="none"/><circle cx="29.32" cy="11.28" r="1.2" fill="rgba(70,210,170,0.85)" stroke="none"/><circle cx="26.62" cy="5.95" r="1.2" fill="rgba(70,210,170,0.85)" stroke="none"/><circle cx="22.48" cy="1.33" r="1.2" fill="rgba(70,210,170,0.85)" stroke="none"/><circle cx="17.16" cy="-2.38" r="1.2" fill="rgba(70,210,170,0.85)" stroke="none"/><circle cx="10.96" cy="-4.99" r="1.2" fill="rgba(70,210,170,0.85)" stroke="none"/><circle cx="4.2" cy="-6.39" r="1.2" fill="rgba(70,210,170,0.85)" stroke="none"/><circle cx="-2.76" cy="-6.52" r="1.2" fill="rgba(70,210,170,0.85)" stroke="none"/><circle cx="-9.59" cy="-5.38" r="1.2" fill="rgba(70,210,170,0.85)" stroke="none"/><circle cx="-15.93" cy="-3.01" r="1.2" fill="rgba(70,210,170,0.85)" stroke="none"/><circle cx="-21.46" cy="0.48" r="1.2" fill="rgba(70,210,170,0.85)" stroke="none"/><circle cx="-25.87" cy="4.93" r="1.2" fill="rgba(70,210,170,0.85)" stroke="none"/><circle cx="-28.89" cy="10.13" r="1.2" fill="rgba(70,210,170,0.85)" stroke="none"/><circle cx="-30.3" cy="15.83" r="1.2" fill="rgba(70,210,170,0.85)" stroke="none"/><circle cx="-29.96" cy="21.69" r="1.2" fill="rgba(70,210,170,0.85)" stroke="none"/><circle cx="-27.83" cy="27.39" r="1.2" fill="rgba(70,210,170,0.85)" stroke="none"/><circle cx="-23.99" cy="32.55" r="1.2" fill="rgba(70,210,170,0.85)" stroke="none"/><circle cx="-17.33" cy="4.69" r="1.2" fill="rgba(70,210,170,0.85)" stroke="none"/><circle cx="-9.43" cy="7.23" r="1.2" fill="rgba(70,210,170,0.85)" stroke="none"/><circle cx="-0.9" cy="8.21" r="1.2" fill="rgba(70,210,170,0.85)" stroke="none"/><circle cx="7.7" cy="7.56" r="1.2" fill="rgba(70,210,170,0.85)" stroke="none"/><circle cx="15.77" cy="5.33" r="1.2" fill="rgba(70,210,170,0.85)" stroke="none"/><circle cx="22.78" cy="1.7" r="1.2" fill="rgba(70,210,170,0.85)" stroke="none"/><circle cx="28.3" cy="-3.08" r="1.2" fill="rgba(70,210,170,0.85)" stroke="none"/><circle cx="32.02" cy="-8.66" r="1.2" fill="rgba(70,210,170,0.85)" stroke="none"/><circle cx="33.76" cy="-14.66" r="1.2" fill="rgba(70,210,170,0.85)" stroke="none"/><circle cx="33.51" cy="-20.71" r="1.2" fill="rgba(70,210,170,0.85)" stroke="none"/><circle cx="31.36" cy="-26.48" r="1.2" fill="rgba(70,210,170,0.85)" stroke="none"/><circle cx="27.48" cy="-31.64" r="1.2" fill="rgba(70,210,170,0.85)" stroke="none"/><circle cx="22.16" cy="-35.94" r="1.2" fill="rgba(70,210,170,0.85)" stroke="none"/><circle cx="15.71" cy="-39.2" r="1.2" fill="rgba(70,210,170,0.85)" stroke="none"/><circle cx="8.46" cy="-41.26" r="1.2" fill="rgba(70,210,170,0.85)" stroke="none"/><circle cx="0.8" cy="-42.05" r="1.2" fill="rgba(70,210,170,0.85)" stroke="none"/><circle cx="-6.9" cy="-41.53" r="1.2" fill="rgba(70,210,170,0.85)" stroke="none"/><circle cx="-14.26" cy="-39.73" r="1.2" fill="rgba(70,210,170,0.85)" stroke="none"/><circle cx="-20.91" cy="-36.71" r="1.2" fill="rgba(70,210,170,0.85)" stroke="none"/><circle cx="-26.49" cy="-32.61" r="1.2" fill="rgba(70,210,170,0.85)" stroke="none"/><circle cx="-30.69" cy="-27.6" r="1.2" fill="rgba(70,210,170,0.85)" stroke="none"/><circle cx="-33.22" cy="-21.94" r="1.2" fill="rgba(70,210,170,0.85)" stroke="none"/><circle cx="-33.87" cy="-15.92" r="1.2" fill="rgba(70,210,170,0.85)" stroke="none"/><circle cx="-32.54" cy="-9.88" r="1.2" fill="rgba(70,210,170,0.85)" stroke="none"/><circle cx="-29.23" cy="-4.18" r="1.2" fill="rgba(70,210,170,0.85)" stroke="none"/><circle cx="-24.06" cy="0.79" r="1.2" fill="rgba(70,210,170,0.85)" stroke="none"/></g></svg>