<svg xmlns="http://www.w3.org/2000/svg" viewBox="0 0 300 300" width="300" height="300"><rect width="300" height="300" fill="#0a1014"/><g transform="translate(150 150) scale(2.73)" fill="none" stroke-linecap="round"><polyline points="0,-36 8.23,-11.33 34.24,-11.12 13.31,4.33 21.16,29.12 0,14 -21.16,29.12 -13.31,4.33 -34.24,-11.12 -8.23,-11.33 0,-36 0,-36" stroke="rgba(70,210,170,0.55)" stroke-width="0.7"/><polyline points="0,-14 13.31,-4.33 8.23,11.33 -8.23,11.33 -13.31,-4.33 0,-14 0,-14" stroke="rgba(70,200,220,0.38)" stroke-width="0.6"/><polyline points="0,-36 21.16,29.12" stroke="rgba(70,220,170,0.28)" stroke-width="0.5"/><polyline points="34.24,-11.12 -21.16,29.12" stroke="rgba(70,220,170,0.28)" stroke-width="0.5"/><polyline points="21.16,29.12 -34.24,-11.12" stroke="rgba(70,220,170,0.28)" stroke-width="0.5"/><polyline points="-21.16,29.12 0,-36" stroke="rgba(70,220,170,0.28)" stroke-width="0.5"/><polyline points="-34.24,-11.12 34.24,-11.12" stroke="rgba(70,220,170,0.28)" stroke-width="0.5"/></g></svg>