<svg xmlns="http://www.w3.org/2000/svg" viewBox="0 0 300 300" width="300" height="300"><rect width="300" height="300" fill="#0a1014"/><g transform="translate(150 150) scale(2.73)" fill="none" stroke-linecap="round"><polyline points="30,0 20.93,0.24 19.47,0.45 18.56,0.65 17.9,0.83 17.38,1.01 16.96,1.19 16.61,1.36 16.31,1.52 16.05,1.69 15.82,1.85 15.62,2.01 15.44,2.17 15.28,2.33 15.14,2.49 15.02,2.65 14.9,2.81 14.8,2.97 14.71,3.13 14.63,3.29 14.56,3.45 14.5,3.62 14.45,3.78 14.4,3.95 14.36,4.12 14.32,4.29 14.29,4.46 14.27,4.64 14.25,4.81 14.23,4.99 14.22,5.18 14.22,5.36 14.22,5.55 14.22,5.74 14.22,5.94 14.23,6.14 14.24,6.34 14.25,6.55 14.27,6.76 14.29,6.97 14.31,7.19 14.33,7.41 14.36,7.63 14.38,7.86 14.41,8.1 14.44,8.33 14.47,8.58 14.49,8.82 14.53,9.08 14.56,9.33 14.59,9.59 14.62,9.86 14.65,10.13 14.68,10.41 14.71,10.69 14.73,10.97 14.76,11.26 14.79,11.55 14.81,11.85 14.83,12.16 14.85,12.46 14.87,12.78 14.88,13.09 14.9,13.41 14.91,13.74 14.91,14.07 14.91,14.4 14.91,14.74 14.9,15.08 14.89,15.42 14.88,15.77 14.86,16.12 14.83,16.47 14.8,16.83 14.76,17.18 14.72,17.54 14.67,17.9 14.61,18.26 14.55,18.63 14.48,18.99 14.41,19.35 14.33,19.72 14.24,20.08 14.14,20.44 14.03,20.8 13.92,21.16 13.8,21.52 13.67,21.88 13.53,22.23 13.39,22.58 13.23,22.92 13.07,23.26 12.9,23.6 12.73,23.93 12.54,24.26 12.35,24.58 12.14,24.9 11.93,25.21 11.72,25.51 11.49,25.81 11.26,26.1 11.02,26.38 10.77,26.66 10.51,26.92 10.25,27.18 9.98,27.43 9.71,27.67 9.43,27.91 9.14,28.13 8.85,28.34 8.55,28.55 8.24,28.75 7.93,28.93 7.62,29.11 7.3,29.28 6.98,29.44 6.65,29.59 6.32,29.73 5.98,29.86 5.65,29.98 5.31,30.09 4.96,30.2 4.62,30.29 4.27,30.38 3.92,30.45 3.57,30.52 3.21,30.58 2.86,30.64 2.5,30.68 2.15,30.72 1.79,30.74 1.43,30.77 1.07,30.78 0.72,30.79 0.36,30.79 0,30.78 -0.36,30.77 -0.72,30.75 -1.07,30.72 -1.43,30.69 -1.79,30.65 -2.14,30.61 -2.49,30.56 -2.85,30.51 -3.2,30.45 -3.55,30.39 -3.9,30.32 -4.25,30.24 -4.6,30.17 -4.94,30.09 -5.29,30 -5.63,29.91 -5.98,29.82 -6.32,29.72 -6.66,29.62 -7,29.52 -7.33,29.41 -7.67,29.3 -8,29.19 -8.34,29.07 -8.67,28.95 -9,28.83 -9.33,28.7 -9.65,28.58 -9.98,28.44 -10.3,28.31 -10.63,28.17 -10.95,28.03 -11.27,27.89 -11.59,27.75 -11.9,27.6 -12.22,27.45 -12.54,27.3 -12.85,27.14 -13.16,26.98 -13.47,26.82 -13.78,26.66 -14.09,26.49 -14.39,26.32 -14.7,26.15 -15,25.98 -15.3,25.8 -15.6,25.63 -15.9,25.45 -16.2,25.26 -16.49,25.08 -16.79,24.89 -17.08,24.7 -17.37,24.5 -17.66,24.31 -17.95,24.11 -18.24,23.91 -18.52,23.7 -18.8,23.5 -19.09,23.29 -19.37,23.08 -19.64,22.86 -19.92,22.65 -20.2,22.43 -20.47,22.21 -20.74,21.98 -21.01,21.76 -21.28,21.53 -21.54,21.29 -21.81,21.06 -22.07,20.82 -22.33,20.58 -22.58,20.33 -22.84,20.09 -23.09,19.84 -23.34,19.58 -23.58,19.33 -23.83,19.07 -24.07,18.8 -24.3,18.54 -24.54,18.27 -24.77,18 -25,17.72 -25.22,17.44 -25.44,17.16 -25.65,16.87 -25.86,16.58 -26.07,16.29 -26.27,15.99 -26.46,15.69 -26.66,15.39 -26.84,15.08 -27.02,14.77 -27.19,14.46 -27.36,14.14 -27.52,13.82 -27.67,13.5 -27.82,13.17 -27.96,12.84 -28.09,12.51 -28.22,12.17 -28.33,11.83 -28.44,11.49 -28.54,11.15 -28.63,10.8 -28.71,10.45 -28.79,10.1 -28.85,9.75 -28.9,9.39 -28.95,9.03 -28.98,8.68 -29.01,8.32 -29.02,7.96 -29.02,7.6 -29.02,7.23 -29,6.87 -28.97,6.51 -28.93,6.15 -28.88,5.79 -28.82,5.43 -28.75,5.07 -28.67,4.71 -28.57,4.36 -28.47,4 -28.36,3.65 -28.23,3.3 -28.1,2.95 -27.95,2.61 -27.8,2.27 -27.64,1.93 -27.46,1.6 -27.28,1.27 -27.09,0.95 -26.89,0.63 -26.68,0.31 -26.47,0 -26.25,-0.31 -26.02,-0.61 -25.78,-0.9 -25.54,-1.19 -25.29,-1.47 -25.03,-1.75 -24.77,-2.02 -24.51,-2.29 -24.24,-2.55 -23.96,-2.8 -23.69,-3.05 -23.41,-3.29 -23.12,-3.52 -22.84,-3.75 -22.55,-3.98 -22.26,-4.19 -21.97,-4.4 -21.68,-4.61 -21.39,-4.81 -21.09,-5 -20.8,-5.19 -20.51,-5.37 -20.22,-5.54 -19.93,-5.71 -19.64,-5.88 -19.35,-6.04 -19.06,-6.19 -18.78,-6.34 -18.5,-6.49 -18.22,-6.63 -17.94,-6.77 -17.67,-6.9 -17.4,-7.03 -17.13,-7.15 -16.87,-7.28 -16.61,-7.39 -16.35,-7.51 -16.1,-7.62 -15.85,-7.73 -15.6,-7.84 -15.36,-7.94 -15.12,-8.04 -14.89,-8.14 -14.66,-8.24 -14.44,-8.33 -14.22,-8.43 -14,-8.52 -13.79,-8.62 -13.58,-8.71 -13.38,-8.8 -13.18,-8.89 -12.99,-8.98 -12.8,-9.07 -12.61,-9.16 -12.43,-9.25 -12.25,-9.35 -12.08,-9.44 -11.92,-9.53 -11.75,-9.63 -11.6,-9.73 -11.44,-9.83 -11.29,-9.93 -11.15,-10.04 -11.01,-10.15 -10.87,-10.26 -10.74,-10.37 -10.62,-10.49 -10.5,-10.62 -10.38,-10.75 -10.27,-10.89 -10.17,-11.03 -10.07,-11.18 -9.97,-11.34 -9.88,-11.5 -9.8,-11.68 -9.73,-11.87 -9.66,-12.07 -9.6,-12.29 -9.55,-12.52 -9.51,-12.78 -9.49,-13.06 -9.47,-13.36 -9.48,-13.71 -9.51,-14.1 -9.57,-14.55 -9.67,-15.08 -9.84,-15.75 -10.13,-16.63 -10.68,-18.01 -15,-25.98 -10.26,-18.25 -9.34,-17.08 -8.72,-16.39 -8.23,-15.92 -7.81,-15.56 -7.45,-15.28 -7.13,-15.06 -6.84,-14.89 -6.56,-14.74 -6.31,-14.63 -6.07,-14.53 -5.84,-14.46 -5.62,-14.4 -5.42,-14.36 -5.22,-14.33 -5.02,-14.31 -4.83,-14.3 -4.65,-14.31 -4.47,-14.32 -4.29,-14.34 -4.12,-14.37 -3.95,-14.4 -3.78,-14.44 -3.61,-14.49 -3.45,-14.55 -3.28,-14.61 -3.12,-14.67 -2.96,-14.75 -2.79,-14.82 -2.63,-14.91 -2.46,-14.99 -2.3,-15.09 -2.13,-15.18 -1.97,-15.29 -1.8,-15.39 -1.63,-15.5 -1.46,-15.62 -1.28,-15.74 -1.11,-15.86 -0.93,-15.98 -0.75,-16.11 -0.57,-16.25 -0.38,-16.39 -0.19,-16.53 0,-16.67 0.2,-16.82 0.39,-16.97 0.6,-17.12 0.8,-17.27 1.02,-17.43 1.23,-17.59 1.45,-17.75 1.67,-17.91 1.9,-18.08 2.13,-18.25 2.37,-18.41 2.61,-18.58 2.86,-18.75 3.11,-18.92 3.37,-19.09 3.63,-19.27 3.9,-19.44 4.17,-19.61 4.44,-19.78 4.73,-19.95 5.02,-20.11 5.31,-20.28 5.61,-20.45 5.91,-20.61 6.22,-20.77 6.53,-20.92 6.85,-21.08 7.17,-21.23 7.5,-21.38 7.83,-21.52 8.17,-21.66 8.51,-21.79 8.85,-21.92 9.2,-22.04 9.56,-22.15 9.91,-22.26 10.27,-22.37 10.63,-22.46 11,-22.55 11.37,-22.64 11.74,-22.71 12.11,-22.78 12.48,-22.83 12.86,-22.88 13.23,-22.92 13.61,-22.95 13.99,-22.98 14.36,-22.99 14.74,-22.99 15.12,-22.98 15.49,-22.97 15.87,-22.94 16.24,-22.9 16.61,-22.86 16.97,-22.8 17.34,-22.73 17.7,-22.66 18.06,-22.57 18.41,-22.47 18.76,-22.36 19.11,-22.24 19.45,-22.12 19.79,-21.98 20.12,-21.83 20.45,-21.68 20.77,-21.51 21.09,-21.34 21.4,-21.15 21.71,-20.96 22.01,-20.76 22.3,-20.55 22.59,-20.34 22.87,-20.11 23.14,-19.88 23.41,-19.64 23.67,-19.4 23.92,-19.14 24.17,-18.89 24.41,-18.62 24.65,-18.35 24.88,-18.08 25.1,-17.79 25.32,-17.51 25.53,-17.22 25.73,-16.92 25.93,-16.62 26.12,-16.32 26.3,-16.01 26.48,-15.7 26.66,-15.39 26.82,-15.07 26.98,-14.75 27.14,-14.43 27.29,-14.11 27.44,-13.78 27.58,-13.45 27.71,-13.12 27.84,-12.79 27.97,-12.45 28.09,-12.12 28.21,-11.78 28.32,-11.44 28.43,-11.1 28.53,-10.76 28.63,-10.42 28.72,-10.08 28.81,-9.73 28.9,-9.39 28.98,-9.05 29.06,-8.7 29.14,-8.36 29.21,-8.01 29.28,-7.66 29.35,-7.32 29.41,-6.97 29.47,-6.62 29.52,-6.28 29.57,-5.93 29.62,-5.58 29.67,-5.23 29.71,-4.88 29.75,-4.54 29.79,-4.19 29.82,-3.84 29.85,-3.49 29.88,-3.14 29.91,-2.79 29.93,-2.44 29.95,-2.09 29.96,-1.75 29.98,-1.4 29.99,-1.05 29.99,-0.7 30,-0.35 30,0" stroke="rgba(70,220,190,0.62)" stroke-width="0.8"/></g></svg>