<svg xmlns="http://www.w3.org/2000/svg" viewBox="0 0 300 300" width="300" height="300"><rect width="300" height="300" fill="#0a1014"/><g transform="translate(150 150) scale(2.73)" fill="none" stroke-linecap="round"><polyline points="0,19.16 -21.09,-0.5" stroke="rgba(70,210,170,0.55)" stroke-width="0.7"/><polyline points="-21.09,-0.5 -17.02,1.51" stroke="rgba(70,210,170,0.55)" stroke-width="0.7"/><polyline points="0,19.16 -17.02,1.51" stroke="rgba(70,210,170,0.55)" stroke-width="0.7"/><polyline points="-17.02,1.51 -12.59,3.08" stroke="rgba(70,210,170,0.55)" stroke-width="0.7"/><polyline points="0,19.16 -12.59,3.08" stroke="rgba(70,210,170,0.55)" stroke-width="0.7"/><polyline points="-12.59,3.08 -7.88,4.17" stroke="rgba(70,210,170,0.55)" stroke-width="0.7"/><polyline points="0,19.16 -7.88,4.17" stroke="rgba(70,210,170,0.55)" stroke-width="0.7"/><polyline points="-7.88,4.17 -3,4.75" stroke="rgba(70,210,170,0.55)" stroke-width="0.7"/><polyline points="0,19.16 -3,4.75" stroke="rgba(70,210,170,0.55)" stroke-width="0.7"/><polyline points="-3,4.75 1.95,4.8" stroke="rgba(70,210,170,0.55)" stroke-width="0.7"/><polyline points="0,19.16 1.95,4.8" stroke="rgba(70,210,170,0.55)" stroke-width="0.7"/><polyline points="1.95,4.8 6.85,4.33" stroke="rgba(70,210,170,0.55)" stroke-width="0.7"/><polyline points="0,19.16 6.85,4.33" stroke="rgba(70,210,170,0.55)" stroke-width="0.7"/><polyline points="6.85,4.33 11.61,3.35" stroke="rgba(70,210,170,0.55)" stroke-width="0.7"/><polyline points="0,19.16 11.61,3.35" stroke="rgba(70,210,170,0.55)" stroke-width="0.7"/><polyline points="11.61,3.35 16.11,1.88" stroke="rgba(70,210,170,0.55)" stroke-width="0.7"/><polyline points="0,19.16 16.11,1.88" stroke="rgba(70,210,170,0.55)" stroke-width="0.7"/><polyline points="16.11,1.88 20.26,-0.04" stroke="rgba(70,210,170,0.55)" stroke-width="0.7"/><polyline points="0,19.16 20.26,-0.04" stroke="rgba(70,210,170,0.55)" stroke-width="0.7"/><polyline points="20.26,-0.04 23.98,-2.37" stroke="rgba(70,210,170,0.55)" stroke-width="0.7"/><polyline points="0,19.16 23.98,-2.37" stroke="rgba(70,210,170,0.55)" stroke-width="0.7"/><polyline points="23.98,-2.37 27.2,-5.04" stroke="rgba(70,210,170,0.55)" stroke-width="0.7"/><polyline points="0,19.16 27.2,-5.04" stroke="rgba(70,210,170,0.55)" stroke-width="0.7"/><polyline points="27.2,-5.04 29.86,-8.01" stroke="rgba(70,210,170,0.55)" stroke-width="0.7"/><polyline points="0,19.16 29.86,-8.01" stroke="rgba(70,210,170,0.55)" stroke-width="0.7"/><polyline points="29.86,-8.01 31.91,-11.2" stroke="rgba(70,210,170,0.55)" stroke-width="0.7"/><polyline points="0,19.16 31.91,-11.2" stroke="rgba(70,210,170,0.55)" stroke-width="0.7"/><polyline points="31.91,-11.2 33.33,-14.54" stroke="rgba(70,210,170,0.55)" stroke-width="0.7"/><polyline points="0,19.16 33.33,-14.54" stroke="rgba(70,210,170,0.55)" stroke-width="0.7"/><polyline points="33.33,-14.54 34.1,-17.97" stroke="rgba(70,210,170,0.55)" stroke-width="0.7"/><polyline points="0,19.16 34.1,-17.97" stroke="rgba(70,210,170,0.55)" stroke-width="0.7"/><polyline points="34.1,-17.97 34.22,-21.42" stroke="rgba(70,210,170,0.55)" stroke-width="0.7"/><polyline points="0,19.16 34.22,-21.42" stroke="rgba(70,210,170,0.55)" stroke-width="0.7"/><polyline points="34.22,-21.42 33.71,-24.83" stroke="rgba(70,210,170,0.55)" stroke-width="0.7"/><polyline points="0,19.16 33.71,-24.83" stroke="rgba(70,210,170,0.55)" stroke-width="0.7"/><polyline points="33.71,-24.83 32.59,-28.12" stroke="rgba(70,210,170,0.55)" stroke-width="0.7"/><polyline points="0,19.16 32.59,-28.12" stroke="rgba(70,210,170,0.55)" stroke-width="0.7"/><polyline points="32.59,-28.12 30.89,-31.25" stroke="rgba(70,210,170,0.55)" stroke-width="0.7"/><polyline points="0,19.16 30.89,-31.25" stroke="rgba(70,210,170,0.55)" stroke-width="0.7"/><polyline points="30.89,-31.25 28.65,-34.17" stroke="rgba(70,210,170,0.55)" stroke-width="0.7"/><polyline points="0,19.16 28.65,-34.17" stroke="rgba(70,210,170,0.55)" stroke-width="0.7"/><polyline points="28.65,-34.17 25.93,-36.83" stroke="rgba(70,210,170,0.55)" stroke-width="0.7"/><polyline points="0,19.16 25.93,-36.83" stroke="rgba(70,210,170,0.55)" stroke-width="0.7"/><polyline points="25.93,-36.83 22.77,-39.18" stroke="rgba(70,210,170,0.55)" stroke-width="0.7"/><polyline points="0,19.16 22.77,-39.18" stroke="rgba(70,210,170,0.55)" stroke-width="0.7"/><polyline points="22.77,-39.18 19.24,-41.21" stroke="rgba(70,210,170,0.55)" stroke-width="0.7"/><polyline points="0,19.16 19.24,-41.21" stroke="rgba(70,210,170,0.55)" stroke-width="0.7"/><polyline points="19.24,-41.21 15.4,-42.87" stroke="rgba(70,210,170,0.55)" stroke-width="0.7"/><polyline points="0,19.16 15.4,-42.87" stroke="rgba(70,210,170,0.55)" stroke-width="0.7"/><polyline points="15.4,-42.87 11.32,-44.14" stroke="rgba(70,210,170,0.55)" stroke-width="0.7"/><polyline points="0,19.16 11.32,-44.14" stroke="rgba(70,210,170,0.55)" stroke-width="0.7"/><polyline points="11.32,-44.14 7.05,-45.02" stroke="rgba(70,210,170,0.55)" stroke-width="0.7"/><polyline points="0,19.16 7.05,-45.02" stroke="rgba(70,210,170,0.55)" stroke-width="0.7"/><polyline points="7.05,-45.02 2.68,-45.48" stroke="rgba(70,210,170,0.55)" stroke-width="0.7"/><polyline points="0,19.16 2.68,-45.48" stroke="rgba(70,210,170,0.55)" stroke-width="0.7"/><polyline points="2.68,-45.48 -1.74,-45.53" stroke="rgba(70,210,170,0.55)" stroke-width="0.7"/><polyline points="0,19.16 -1.74,-45.53" stroke="rgba(70,210,170,0.55)" stroke-width="0.7"/><polyline points="-1.74,-45.53 -6.13,-45.15" stroke="rgba(70,210,170,0.55)" stroke-width="0.7"/><polyline points="0,19.16 -6.13,-45.15" stroke="rgba(70,210,170,0.55)" stroke-width="0.7"/><polyline points="-6.13,-45.15 -10.42,-44.36" stroke="rgba(70,210,170,0.55)" stroke-width="0.7"/><polyline points="0,19.16 -10.42,-44.36" stroke="rgba(70,210,170,0.55)" stroke-width="0.7"/><polyline points="-10.42,-44.36 -14.55,-43.17" stroke="rgba(70,210,170,0.55)" stroke-width="0.7"/><polyline points="0,19.16 -14.55,-43.17" stroke="rgba(70,210,170,0.55)" stroke-width="0.7"/><polyline points="-14.55,-43.17 -18.45,-41.59" stroke="rgba(70,210,170,0.55)" stroke-width="0.7"/><polyline points="0,19.16 -18.45,-41.59" stroke="rgba(70,210,170,0.55)" stroke-width="0.7"/><polyline points="-18.45,-41.59 -22.05,-39.64" stroke="rgba(70,210,170,0.55)" stroke-width="0.7"/><polyline points="0,19.16 -22.05,-39.64" stroke="rgba(70,210,170,0.55)" stroke-width="0.7"/><polyline points="-22.05,-39.64 -25.29,-37.36" stroke="rgba(70,210,170,0.55)" stroke-width="0.7"/><polyline points="0,19.16 -25.29,-37.36" stroke="rgba(70,210,170,0.55)" stroke-width="0.7"/><polyline points="-25.29,-37.36 -28.11,-34.76" stroke="rgba(70,210,170,0.55)" stroke-width="0.7"/><polyline points="0,19.16 -28.11,-34.76" stroke="rgba(70,210,170,0.55)" stroke-width="0.7"/><polyline points="-28.11,-34.76 -30.45,-31.89" stroke="rgba(70,210,170,0.55)" stroke-width="0.7"/><polyline points="0,19.16 -30.45,-31.89" stroke="rgba(70,210,170,0.55)" stroke-width="0.7"/><polyline points="-30.45,-31.89 -32.27,-28.8" stroke="rgba(70,210,170,0.55)" stroke-width="0.7"/><polyline points="0,19.16 -32.27,-28.8" stroke="rgba(70,210,170,0.55)" stroke-width="0.7"/><polyline points="-32.27,-28.8 -33.52,-25.54" stroke="rgba(70,210,170,0.55)" stroke-width="0.7"/><polyline points="0,19.16 -33.52,-25.54" stroke="rgba(70,210,170,0.55)" stroke-width="0.7"/><polyline points="-33.52,-25.54 -34.16,-22.15" stroke="rgba(70,210,170,0.55)" stroke-width="0.7"/><polyline points="0,19.16 -34.16,-22.15" stroke="rgba(70,210,170,0.55)" stroke-width="0.7"/><polyline points="-34.16,-22.15 -34.18,-18.71" stroke="rgba(70,210,170,0.55)" stroke-width="0.7"/><polyline points="0,19.16 -34.18,-18.71" stroke="rgba(70,210,170,0.55)" stroke-width="0.7"/><polyline points="-34.18,-18.71 -33.55,-15.27" stroke="rgba(70,210,170,0.55)" stroke-width="0.7"/><polyline points="0,19.16 -33.55,-15.27" stroke="rgba(70,210,170,0.55)" stroke-width="0.7"/><polyline points="-33.55,-15.27 -32.26,-11.9" stroke="rgba(70,210,170,0.55)" stroke-width="0.7"/><polyline points="0,19.16 -32.26,-11.9" stroke="rgba(70,210,170,0.55)" stroke-width="0.7"/><polyline points="-32.26,-11.9 -30.35,-8.67" stroke="rgba(70,210,170,0.55)" stroke-width="0.7"/><polyline points="0,19.16 -30.35,-8.67" stroke="rgba(70,210,170,0.55)" stroke-width="0.7"/><polyline points="-30.35,-8.67 -27.82,-5.65" stroke="rgba(70,210,170,0.55)" stroke-width="0.7"/><polyline points="0,19.16 -27.82,-5.65" stroke="rgba(70,210,170,0.55)" stroke-width="0.7"/><polyline points="-27.82,-5.65 -24.71,-2.91" stroke="rgba(70,210,170,0.55)" stroke-width="0.7"/><polyline points="0,19.16 -24.71,-2.91" stroke="rgba(70,210,170,0.55)" stroke-width="0.7"/><polyline points="-24.71,-2.91 -21.09,-0.5" stroke="rgba(70,210,170,0.55)" stroke-width="0.7"/><circle cx="0" cy="19.16" r="1.2" fill="rgba(70,210,170,0.85)" stroke="none"/><circle cx="-21.09" cy="-0.5" r="1.2" fill="rgba(70,210,170,0.85)" stroke="none"/><circle cx="-17.02" cy="1.51" r="1.2" fill="rgba(70,210,170,0.85)" stroke="none"/><circle cx="-12.59" cy="3.08" r="1.2" fill="rgba(70,210,170,0.85)" stroke="none"/><circle cx="-7.88" cy="4.17" r="1.2" fill="rgba(70,210,170,0.85)" stroke="none"/><circle cx="-3" cy="4.75" r="1.2" fill="rgba(70,210,170,0.85)" stroke="none"/><circle cx="1.95" cy="4.8" r="1.2" fill="rgba(70,210,170,0.85)" stroke="none"/><circle cx="6.85" cy="4.33" r="1.2" fill="rgba(70,210,170,0.85)" stroke="none"/><circle cx="11.61" cy="3.35" r="1.2" fill="rgba(70,210,170,0.85)" stroke="none"/><circle cx="16.11" cy="1.88" r="1.2" fill="rgba(70,210,170,0.85)" stroke="none"/><circle cx="20.26" cy="-0.04" r="1.2" fill="rgba(70,210,170,0.85)" stroke="none"/><circle cx="23.98" cy="-2.37" r="1.2" fill="rgba(70,210,170,0.85)" stroke="none"/><circle cx="27.2" cy="-5.04" r="1.2" fill="rgba(70,210,170,0.85)" stroke="none"/><circle cx="29.86" cy="-8.01" r="1.2" fill="rgba(70,210,170,0.85)" stroke="none"/><circle cx="31.91" cy="-11.2" r="1.2" fill="rgba(70,210,170,0.85)" stroke="none"/><circle cx="33.33" cy="-14.54" r="1.2" fill="rgba(70,210,170,0.85)" stroke="none"/><circle cx="34.1" cy="-17.97" r="1.2" fill="rgba(70,210,170,0.85)" stroke="none"/><circle cx="34.22" cy="-21.42" r="1.2" fill="rgba(70,210,170,0.85)" stroke="none"/><circle cx="33.71" cy="-24.83" r="1.2" fill="rgba(70,210,170,0.85)" stroke="none"/><circle cx="32.59" cy="-28.12" r="1.2" fill="rgba(70,210,170,0.85)" stroke="none"/><circle cx="30.89" cy="-31.25" r="1.2" fill="rgba(70,210,170,0.85)" stroke="none"/><circle cx="28.65" cy="-34.17" r="1.2" fill="rgba(70,210,170,0.85)" stroke="none"/><circle cx="25.93" cy="-36.83" r="1.2" fill="rgba(70,210,170,0.85)" stroke="none"/><circle cx="22.77" cy="-39.18" r="1.2" fill="rgba(70,210,170,0.85)" stroke="none"/><circle cx="19.24" cy="-41.21" r="1.2" fill="rgba(70,210,170,0.85)" stroke="none"/><circle cx="15.4" cy="-42.87" r="1.2" fill="rgba(70,210,170,0.85)" stroke="none"/><circle cx="11.32" cy="-44.14" r="1.2" fill="rgba(70,210,170,0.85)" stroke="none"/><circle cx="7.05" cy="-45.02" r="1.2" fill="rgba(70,210,170,0.85)" stroke="none"/><circle cx="2.68" cy="-45.48" r="1.2" fill="rgba(70,210,170,0.85)" stroke="none"/><circle cx="-1.74" cy="-45.53" r="1.2" fill="rgba(70,210,170,0.85)" stroke="none"/><circle cx="-6.13" cy="-45.15" r="1.2" fill="rgba(70,210,170,0.85)" stroke="none"/><circle cx="-10.42" cy="-44.36" r="1.2" fill="rgba(70,210,170,0.85)" stroke="none"/><circle cx="-14.55" cy="-43.17" r="1.2" fill="rgba(70,210,170,0.85)" stroke="none"/><circle cx="-18.45" cy="-41.59" r="1.2" fill="rgba(70,210,170,0.85)" stroke="none"/><circle cx="-22.05" cy="-39.64" r="1.2" fill="rgba(70,210,170,0.85)" stroke="none"/><circle cx="-25.29" cy="-37.36" r="1.2" fill="rgba(70,210,170,0.85)" stroke="none"/><circle cx="-28.11" cy="-34.76" r="1.2" fill="rgba(70,210,170,0.85)" stroke="none"/><circle cx="-30.45" cy="-31.89" r="1.2" fill="rgba(70,210,170,0.85)" stroke="none"/><circle cx="-32.27" cy="-28.8" r="1.2" fill="rgba(70,210,170,0.85)" stroke="none"/><circle cx="-33.52" cy="-25.54" r="1.2" fill="rgba(70,210,170,0.85)" stroke="none"/><circle cx="-34.16" cy="-22.15" r="1.2" fill="rgba(70,210,170,0.85)" stroke="none"/><circle cx="-34.18" cy="-18.71" r="1.2" fill="rgba(70,210,170,0.85)" stroke="none"/><circle cx="-33.55" cy="-15.27" r="1.2" fill="rgba(70,210,170,0.85)" stroke="none"/><circle cx="-32.26" cy="-11.9" r="1.2" fill="rgba(70,210,170,0.85)" stroke="none"/><circle cx="-30.35" cy="-8.67" r="1.2" fill="rgba(70,210,170,0.85)" stroke="none"/><circle cx="-27.82" cy="-5.65" r="1.2" fill="rgba(70,210,170,0.85)" stroke="none"/><circle cx="-24.71" cy="-2.91" r="1.2" fill="rgba(70,210,170,0.85)" stroke="none"/></g></svg>