<svg xmlns="http://www.w3.org/2000/svg" viewBox="0 0 300 300" width="300" height="300"><rect width="300" height="300" fill="#0a1014"/><g transform="translate(150 150) scale(2.73)" fill="none" stroke-linecap="round"><polyline points="-6.97,-54.3 -48.38,-16.19" stroke="rgba(70,210,170,0.55)" stroke-width="0.7"/><polyline points="-48.38,-16.19 -42.47,24.53" stroke="rgba(70,210,170,0.55)" stroke-width="0.7"/><polyline points="-42.47,24.53 -6.18,-12.36" stroke="rgba(70,210,170,0.55)" stroke-width="0.7"/><polyline points="-6.18,-12.36 -6.97,-54.3" stroke="rgba(70,210,170,0.55)" stroke-width="0.7"/><polyline points="47.18,-27.25 8.17,16.33" stroke="rgba(70,210,170,0.55)" stroke-width="0.7"/><polyline points="8.17,16.33 7.11,55.39" stroke="rgba(70,210,170,0.55)" stroke-width="0.7"/><polyline points="7.11,55.39 41.55,13.91" stroke="rgba(70,210,170,0.55)" stroke-width="0.7"/><polyline points="41.55,13.91 47.18,-27.25" stroke="rgba(70,210,170,0.55)" stroke-width="0.7"/><polyline points="-6.97,-54.3 47.18,-27.25" stroke="rgba(70,210,170,0.55)" stroke-width="0.7"/><polyline points="-48.38,-16.19 8.17,16.33" stroke="rgba(70,210,170,0.55)" stroke-width="0.7"/><polyline points="-42.47,24.53 7.11,55.39" stroke="rgba(70,210,170,0.55)" stroke-width="0.7"/><polyline points="-6.18,-12.36 41.55,13.91" stroke="rgba(70,210,170,0.55)" stroke-width="0.7"/><polyline points="-3.5,-27.29 -23.23,-7.78" stroke="rgba(70,210,170,0.55)" stroke-width="0.7"/><polyline points="-23.23,-7.78 -21.78,12.58" stroke="rgba(70,210,170,0.55)" stroke-width="0.7"/><polyline points="-21.78,12.58 -3.29,-6.58" stroke="rgba(70,210,170,0.55)" stroke-width="0.7"/><polyline points="-3.29,-6.58 -3.5,-27.29" stroke="rgba(70,210,170,0.55)" stroke-width="0.7"/><polyline points="22.96,-13.26 3.78,7.56" stroke="rgba(70,210,170,0.55)" stroke-width="0.7"/><polyline points="3.78,7.56 3.54,27.56" stroke="rgba(70,210,170,0.55)" stroke-width="0.7"/><polyline points="3.54,27.56 21.53,7.21" stroke="rgba(70,210,170,0.55)" stroke-width="0.7"/><polyline points="21.53,7.21 22.96,-13.26" stroke="rgba(70,210,170,0.55)" stroke-width="0.7"/><polyline points="-3.5,-27.29 22.96,-13.26" stroke="rgba(70,210,170,0.55)" stroke-width="0.7"/><polyline points="-23.23,-7.78 3.78,7.56" stroke="rgba(70,210,170,0.55)" stroke-width="0.7"/><polyline points="-21.78,12.58 3.54,27.56" stroke="rgba(70,210,170,0.55)" stroke-width="0.7"/><polyline points="-3.29,-6.58 21.53,7.21" stroke="rgba(70,210,170,0.55)" stroke-width="0.7"/><polyline points="-6.97,-54.3 -3.5,-27.29" stroke="rgba(70,210,170,0.55)" stroke-width="0.7"/><polyline points="-48.38,-16.19 -23.23,-7.78" stroke="rgba(70,210,170,0.55)" stroke-width="0.7"/><polyline points="-42.47,24.53 -21.78,12.58" stroke="rgba(70,210,170,0.55)" stroke-width="0.7"/><polyline points="-6.18,-12.36 -3.29,-6.58" stroke="rgba(70,210,170,0.55)" stroke-width="0.7"/><polyline points="47.18,-27.25 22.96,-13.26" stroke="rgba(70,210,170,0.55)" stroke-width="0.7"/><polyline points="8.17,16.33 3.78,7.56" stroke="rgba(70,210,170,0.55)" stroke-width="0.7"/><polyline points="7.11,55.39 3.54,27.56" stroke="rgba(70,210,170,0.55)" stroke-width="0.7"/><polyline points="41.55,13.91 21.53,7.21" stroke="rgba(70,210,170,0.55)" stroke-width="0.7"/><circle cx="-6.97" cy="-54.3" r="1.2" fill="rgba(70,210,170,0.85)" stroke="none"/><circle cx="-48.38" cy="-16.19" r="1.2" fill="rgba(70,210,170,0.85)" stroke="none"/><circle cx="-42.47" cy="24.53" r="1.2" fill="rgba(70,210,170,0.85)" stroke="none"/><circle cx="-6.18" cy="-12.36" r="1.2" fill="rgba(70,210,170,0.85)" stroke="none"/><circle cx="47.18" cy="-27.25" r="1.2" fill="rgba(70,210,170,0.85)" stroke="none"/><circle cx="8.17" cy="16.33" r="1.2" fill="rgba(70,210,170,0.85)" stroke="none"/><circle cx="7.11" cy="55.39" r="1.2" fill="rgba(70,210,170,0.85)" stroke="none"/><circle cx="41.55" cy="13.91" r="1.2" fill="rgba(70,210,170,0.85)" stroke="none"/><circle cx="-3.5" cy="-27.29" r="1.2" fill="rgba(70,210,170,0.85)" stroke="none"/><circle cx="-23.23" cy="-7.78" r="1.2" fill="rgba(70,210,170,0.85)" stroke="none"/><circle cx="-21.78" cy="12.58" r="1.2" fill="rgba(70,210,170,0.85)" stroke="none"/><circle cx="-3.29" cy="-6.58" r="1.2" fill="rgba(70,210,170,0.85)" stroke="none"/><circle cx="22.96" cy="-13.26" r="1.2" fill="rgba(70,210,170,0.85)" stroke="none"/><circle cx="3.78" cy="7.56" r="1.2" fill="rgba(70,210,170,0.85)" stroke="none"/><circle cx="3.54" cy="27.56" r="1.2" fill="rgba(70,210,170,0.85)" stroke="none"/><circle cx="21.53" cy="7.21" r="1.2" fill="rgba(70,210,170,0.85)" stroke="none"/></g></svg>