<svg xmlns="http://www.w3.org/2000/svg" viewBox="0 0 300 300" width="300" height="300"><rect width="300" height="300" fill="#0a1014"/><g transform="translate(150 150) scale(2.73)" fill="none" stroke-linecap="round"><polyline points="-18.61,36.84 -15.74,38.42" stroke="rgba(70,210,170,0.55)" stroke-width="0.7"/><polyline points="-19.29,3.75 -15.94,5.26" stroke="rgba(70,210,170,0.55)" stroke-width="0.7"/><polyline points="-18.61,36.84 -19.29,3.75" stroke="rgba(70,210,170,0.55)" stroke-width="0.7"/><polyline points="-18.61,36.84 -22.37,1.97" stroke="rgba(70,210,170,0.55)" stroke-width="0.7"/><polyline points="-15.74,38.42 -12.64,39.73" stroke="rgba(70,210,170,0.55)" stroke-width="0.7"/><polyline points="-15.94,5.26 -12.37,6.48" stroke="rgba(70,210,170,0.55)" stroke-width="0.7"/><polyline points="-15.74,38.42 -15.94,5.26" stroke="rgba(70,210,170,0.55)" stroke-width="0.7"/><polyline points="-15.74,38.42 -19.29,3.75" stroke="rgba(70,210,170,0.55)" stroke-width="0.7"/><polyline points="-12.64,39.73 -9.38,40.75" stroke="rgba(70,210,170,0.55)" stroke-width="0.7"/><polyline points="-12.37,6.48 -8.63,7.39" stroke="rgba(70,210,170,0.55)" stroke-width="0.7"/><polyline points="-12.64,39.73 -12.37,6.48" stroke="rgba(70,210,170,0.55)" stroke-width="0.7"/><polyline points="-12.64,39.73 -15.94,5.26" stroke="rgba(70,210,170,0.55)" stroke-width="0.7"/><polyline points="-9.38,40.75 -5.97,41.46" stroke="rgba(70,210,170,0.55)" stroke-width="0.7"/><polyline points="-8.63,7.39 -4.76,7.97" stroke="rgba(70,210,170,0.55)" stroke-width="0.7"/><polyline points="-9.38,40.75 -8.63,7.39" stroke="rgba(70,210,170,0.55)" stroke-width="0.7"/><polyline points="-9.38,40.75 -12.37,6.48" stroke="rgba(70,210,170,0.55)" stroke-width="0.7"/><polyline points="-5.97,41.46 -2.49,41.85" stroke="rgba(70,210,170,0.55)" stroke-width="0.7"/><polyline points="-4.76,7.97 -0.82,8.21" stroke="rgba(70,210,170,0.55)" stroke-width="0.7"/><polyline points="-5.97,41.46 -4.76,7.97" stroke="rgba(70,210,170,0.55)" stroke-width="0.7"/><polyline points="-5.97,41.46 -8.63,7.39" stroke="rgba(70,210,170,0.55)" stroke-width="0.7"/><polyline points="-2.49,41.85 1.03,41.92" stroke="rgba(70,210,170,0.55)" stroke-width="0.7"/><polyline points="-0.82,8.21 3.13,8.11" stroke="rgba(70,210,170,0.55)" stroke-width="0.7"/><polyline points="-2.49,41.85 -0.82,8.21" stroke="rgba(70,210,170,0.55)" stroke-width="0.7"/><polyline points="-2.49,41.85 -4.76,7.97" stroke="rgba(70,210,170,0.55)" stroke-width="0.7"/><polyline points="1.03,41.92 4.53,41.66" stroke="rgba(70,210,170,0.55)" stroke-width="0.7"/><polyline points="3.13,8.11 7.03,7.67" stroke="rgba(70,210,170,0.55)" stroke-width="0.7"/><polyline points="1.03,41.92 3.13,8.11" stroke="rgba(70,210,170,0.55)" stroke-width="0.7"/><polyline points="1.03,41.92 -0.82,8.21" stroke="rgba(70,210,170,0.55)" stroke-width="0.7"/><polyline points="4.53,41.66 7.97,41.08" stroke="rgba(70,210,170,0.55)" stroke-width="0.7"/><polyline points="7.03,7.67 10.83,6.9" stroke="rgba(70,210,170,0.55)" stroke-width="0.7"/><polyline points="4.53,41.66 7.03,7.67" stroke="rgba(70,210,170,0.55)" stroke-width="0.7"/><polyline points="4.53,41.66 3.13,8.11" stroke="rgba(70,210,170,0.55)" stroke-width="0.7"/><polyline points="7.97,41.08 11.3,40.19" stroke="rgba(70,210,170,0.55)" stroke-width="0.7"/><polyline points="10.83,6.9 14.48,5.81" stroke="rgba(70,210,170,0.55)" stroke-width="0.7"/><polyline points="7.97,41.08 10.83,6.9" stroke="rgba(70,210,170,0.55)" stroke-width="0.7"/><polyline points="7.97,41.08 7.03,7.67" stroke="rgba(70,210,170,0.55)" stroke-width="0.7"/><polyline points="11.3,40.19 14.47,39" stroke="rgba(70,210,170,0.55)" stroke-width="0.7"/><polyline points="14.48,5.81 17.93,4.42" stroke="rgba(70,210,170,0.55)" stroke-width="0.7"/><polyline points="11.3,40.19 14.48,5.81" stroke="rgba(70,210,170,0.55)" stroke-width="0.7"/><polyline points="11.3,40.19 10.83,6.9" stroke="rgba(70,210,170,0.55)" stroke-width="0.7"/><polyline points="14.47,39 17.45,37.53" stroke="rgba(70,210,170,0.55)" stroke-width="0.7"/><polyline points="17.93,4.42 21.12,2.74" stroke="rgba(70,210,170,0.55)" stroke-width="0.7"/><polyline points="14.47,39 17.93,4.42" stroke="rgba(70,210,170,0.55)" stroke-width="0.7"/><polyline points="14.47,39 14.48,5.81" stroke="rgba(70,210,170,0.55)" stroke-width="0.7"/><polyline points="17.45,37.53 20.18,35.8" stroke="rgba(70,210,170,0.55)" stroke-width="0.7"/><polyline points="21.12,2.74 24.03,0.81" stroke="rgba(70,210,170,0.55)" stroke-width="0.7"/><polyline points="17.45,37.53 21.12,2.74" stroke="rgba(70,210,170,0.55)" stroke-width="0.7"/><polyline points="17.45,37.53 17.93,4.42" stroke="rgba(70,210,170,0.55)" stroke-width="0.7"/><polyline points="20.18,35.8 22.64,33.85" stroke="rgba(70,210,170,0.55)" stroke-width="0.7"/><polyline points="24.03,0.81 26.6,-1.34" stroke="rgba(70,210,170,0.55)" stroke-width="0.7"/><polyline points="20.18,35.8 24.03,0.81" stroke="rgba(70,210,170,0.55)" stroke-width="0.7"/><polyline points="20.18,35.8 21.12,2.74" stroke="rgba(70,210,170,0.55)" stroke-width="0.7"/><polyline points="22.64,33.85 24.79,31.69" stroke="rgba(70,210,170,0.55)" stroke-width="0.7"/><polyline points="26.6,-1.34 28.82,-3.68" stroke="rgba(70,210,170,0.55)" stroke-width="0.7"/><polyline points="22.64,33.85 26.6,-1.34" stroke="rgba(70,210,170,0.55)" stroke-width="0.7"/><polyline points="22.64,33.85 24.03,0.81" stroke="rgba(70,210,170,0.55)" stroke-width="0.7"/><polyline points="24.79,31.69 26.62,29.36" stroke="rgba(70,210,170,0.55)" stroke-width="0.7"/><polyline points="28.82,-3.68 30.65,-6.19" stroke="rgba(70,210,170,0.55)" stroke-width="0.7"/><polyline points="24.79,31.69 28.82,-3.68" stroke="rgba(70,210,170,0.55)" stroke-width="0.7"/><polyline points="24.79,31.69 26.6,-1.34" stroke="rgba(70,210,170,0.55)" stroke-width="0.7"/><polyline points="26.62,29.36 28.1,26.89" stroke="rgba(70,210,170,0.55)" stroke-width="0.7"/><polyline points="30.65,-6.19 32.09,-8.81" stroke="rgba(70,210,170,0.55)" stroke-width="0.7"/><polyline points="26.62,29.36 30.65,-6.19" stroke="rgba(70,210,170,0.55)" stroke-width="0.7"/><polyline points="26.62,29.36 28.82,-3.68" stroke="rgba(70,210,170,0.55)" stroke-width="0.7"/><polyline points="28.1,26.89 29.22,24.32" stroke="rgba(70,210,170,0.55)" stroke-width="0.7"/><polyline points="32.09,-8.81 33.11,-11.52" stroke="rgba(70,210,170,0.55)" stroke-width="0.7"/><polyline points="28.1,26.89 32.09,-8.81" stroke="rgba(70,210,170,0.55)" stroke-width="0.7"/><polyline points="28.1,26.89 30.65,-6.19" stroke="rgba(70,210,170,0.55)" stroke-width="0.7"/><polyline points="29.22,24.32 29.96,21.68" stroke="rgba(70,210,170,0.55)" stroke-width="0.7"/><polyline points="33.11,-11.52 33.71,-14.28" stroke="rgba(70,210,170,0.55)" stroke-width="0.7"/><polyline points="29.22,24.32 33.11,-11.52" stroke="rgba(70,210,170,0.55)" stroke-width="0.7"/><polyline points="29.22,24.32 32.09,-8.81" stroke="rgba(70,210,170,0.55)" stroke-width="0.7"/><polyline points="29.96,21.68 30.34,19" stroke="rgba(70,210,170,0.55)" stroke-width="0.7"/><polyline points="33.71,-14.28 33.9,-17.06" stroke="rgba(70,210,170,0.55)" stroke-width="0.7"/><polyline points="29.96,21.68 33.71,-14.28" stroke="rgba(70,210,170,0.55)" stroke-width="0.7"/><polyline points="29.96,21.68 33.11,-11.52" stroke="rgba(70,210,170,0.55)" stroke-width="0.7"/><polyline points="30.34,19 30.34,16.32" stroke="rgba(70,210,170,0.55)" stroke-width="0.7"/><polyline points="33.9,-17.06 33.67,-19.82" stroke="rgba(70,210,170,0.55)" stroke-width="0.7"/><polyline points="30.34,19 33.9,-17.06" stroke="rgba(70,210,170,0.55)" stroke-width="0.7"/><polyline points="30.34,19 33.71,-14.28" stroke="rgba(70,210,170,0.55)" stroke-width="0.7"/><polyline points="30.34,16.32 29.97,13.67" stroke="rgba(70,210,170,0.55)" stroke-width="0.7"/><polyline points="33.67,-19.82 33.05,-22.53" stroke="rgba(70,210,170,0.55)" stroke-width="0.7"/><polyline points="30.34,16.32 33.67,-19.82" stroke="rgba(70,210,170,0.55)" stroke-width="0.7"/><polyline points="30.34,16.32 33.9,-17.06" stroke="rgba(70,210,170,0.55)" stroke-width="0.7"/><polyline points="29.97,13.67 29.25,11.09" stroke="rgba(70,210,170,0.55)" stroke-width="0.7"/><polyline points="33.05,-22.53 32.03,-25.16" stroke="rgba(70,210,170,0.55)" stroke-width="0.7"/><polyline points="29.97,13.67 33.05,-22.53" stroke="rgba(70,210,170,0.55)" stroke-width="0.7"/><polyline points="29.97,13.67 33.67,-19.82" stroke="rgba(70,210,170,0.55)" stroke-width="0.7"/><polyline points="29.25,11.09 28.19,8.59" stroke="rgba(70,210,170,0.55)" stroke-width="0.7"/><polyline points="32.03,-25.16 30.65,-27.67" stroke="rgba(70,210,170,0.55)" stroke-width="0.7"/><polyline points="29.25,11.09 32.03,-25.16" stroke="rgba(70,210,170,0.55)" stroke-width="0.7"/><polyline points="29.25,11.09 33.05,-22.53" stroke="rgba(70,210,170,0.55)" stroke-width="0.7"/><polyline points="28.19,8.59 26.8,6.22" stroke="rgba(70,210,170,0.55)" stroke-width="0.7"/><polyline points="30.65,-27.67 28.91,-30.04" stroke="rgba(70,210,170,0.55)" stroke-width="0.7"/><polyline points="28.19,8.59 30.65,-27.67" stroke="rgba(70,210,170,0.55)" stroke-width="0.7"/><polyline points="28.19,8.59 32.03,-25.16" stroke="rgba(70,210,170,0.55)" stroke-width="0.7"/><polyline points="26.8,6.22 25.11,3.99" stroke="rgba(70,210,170,0.55)" stroke-width="0.7"/><polyline points="28.91,-30.04 26.86,-32.26" stroke="rgba(70,210,170,0.55)" stroke-width="0.7"/><polyline points="26.8,6.22 28.91,-30.04" stroke="rgba(70,210,170,0.55)" stroke-width="0.7"/><polyline points="26.8,6.22 30.65,-27.67" stroke="rgba(70,210,170,0.55)" stroke-width="0.7"/><polyline points="25.11,3.99 23.14,1.92" stroke="rgba(70,210,170,0.55)" stroke-width="0.7"/><polyline points="26.86,-32.26 24.51,-34.28" stroke="rgba(70,210,170,0.55)" stroke-width="0.7"/><polyline points="25.11,3.99 26.86,-32.26" stroke="rgba(70,210,170,0.55)" stroke-width="0.7"/><polyline points="25.11,3.99 28.91,-30.04" stroke="rgba(70,210,170,0.55)" stroke-width="0.7"/><polyline points="23.14,1.92 20.91,0.05" stroke="rgba(70,210,170,0.55)" stroke-width="0.7"/><polyline points="24.51,-34.28 21.9,-36.11" stroke="rgba(70,210,170,0.55)" stroke-width="0.7"/><polyline points="23.14,1.92 24.51,-34.28" stroke="rgba(70,210,170,0.55)" stroke-width="0.7"/><polyline points="23.14,1.92 26.86,-32.26" stroke="rgba(70,210,170,0.55)" stroke-width="0.7"/><polyline points="20.91,0.05 18.46,-1.62" stroke="rgba(70,210,170,0.55)" stroke-width="0.7"/><polyline points="21.9,-36.11 19.05,-37.71" stroke="rgba(70,210,170,0.55)" stroke-width="0.7"/><polyline points="20.91,0.05 21.9,-36.11" stroke="rgba(70,210,170,0.55)" stroke-width="0.7"/><polyline points="20.91,0.05 24.51,-34.28" stroke="rgba(70,210,170,0.55)" stroke-width="0.7"/><polyline points="18.46,-1.62 15.81,-3.07" stroke="rgba(70,210,170,0.55)" stroke-width="0.7"/><polyline points="19.05,-37.71 16.01,-39.08" stroke="rgba(70,210,170,0.55)" stroke-width="0.7"/><polyline points="18.46,-1.62 19.05,-37.71" stroke="rgba(70,210,170,0.55)" stroke-width="0.7"/><polyline points="18.46,-1.62 21.9,-36.11" stroke="rgba(70,210,170,0.55)" stroke-width="0.7"/><polyline points="15.81,-3.07 12.99,-4.29" stroke="rgba(70,210,170,0.55)" stroke-width="0.7"/><polyline points="16.01,-39.08 12.79,-40.2" stroke="rgba(70,210,170,0.55)" stroke-width="0.7"/><polyline points="15.81,-3.07 16.01,-39.08" stroke="rgba(70,210,170,0.55)" stroke-width="0.7"/><polyline points="15.81,-3.07 19.05,-37.71" stroke="rgba(70,210,170,0.55)" stroke-width="0.7"/><polyline points="12.99,-4.29 10.03,-5.26" stroke="rgba(70,210,170,0.55)" stroke-width="0.7"/><polyline points="12.79,-40.2 9.45,-41.06" stroke="rgba(70,210,170,0.55)" stroke-width="0.7"/><polyline points="12.99,-4.29 12.79,-40.2" stroke="rgba(70,210,170,0.55)" stroke-width="0.7"/><polyline points="12.99,-4.29 16.01,-39.08" stroke="rgba(70,210,170,0.55)" stroke-width="0.7"/><polyline points="10.03,-5.26 6.97,-5.97" stroke="rgba(70,210,170,0.55)" stroke-width="0.7"/><polyline points="9.45,-41.06 6,-41.66" stroke="rgba(70,210,170,0.55)" stroke-width="0.7"/><polyline points="10.03,-5.26 9.45,-41.06" stroke="rgba(70,210,170,0.55)" stroke-width="0.7"/><polyline points="10.03,-5.26 12.79,-40.2" stroke="rgba(70,210,170,0.55)" stroke-width="0.7"/><polyline points="6.97,-5.97 3.84,-6.43" stroke="rgba(70,210,170,0.55)" stroke-width="0.7"/><polyline points="6,-41.66 2.5,-41.99" stroke="rgba(70,210,170,0.55)" stroke-width="0.7"/><polyline points="6.97,-5.97 6,-41.66" stroke="rgba(70,210,170,0.55)" stroke-width="0.7"/><polyline points="6.97,-5.97 9.45,-41.06" stroke="rgba(70,210,170,0.55)" stroke-width="0.7"/><polyline points="3.84,-6.43 0.66,-6.61" stroke="rgba(70,210,170,0.55)" stroke-width="0.7"/><polyline points="2.5,-41.99 -1.03,-42.05" stroke="rgba(70,210,170,0.55)" stroke-width="0.7"/><polyline points="3.84,-6.43 2.5,-41.99" stroke="rgba(70,210,170,0.55)" stroke-width="0.7"/><polyline points="3.84,-6.43 6,-41.66" stroke="rgba(70,210,170,0.55)" stroke-width="0.7"/><polyline points="0.66,-6.61 -2.52,-6.54" stroke="rgba(70,210,170,0.55)" stroke-width="0.7"/><polyline points="-1.03,-42.05 -4.55,-41.83" stroke="rgba(70,210,170,0.55)" stroke-width="0.7"/><polyline points="0.66,-6.61 -1.03,-42.05" stroke="rgba(70,210,170,0.55)" stroke-width="0.7"/><polyline points="0.66,-6.61 2.5,-41.99" stroke="rgba(70,210,170,0.55)" stroke-width="0.7"/><polyline points="-2.52,-6.54 -5.67,-6.19" stroke="rgba(70,210,170,0.55)" stroke-width="0.7"/><polyline points="-4.55,-41.83 -8.02,-41.34" stroke="rgba(70,210,170,0.55)" stroke-width="0.7"/><polyline points="-2.52,-6.54 -4.55,-41.83" stroke="rgba(70,210,170,0.55)" stroke-width="0.7"/><polyline points="-2.52,-6.54 -1.03,-42.05" stroke="rgba(70,210,170,0.55)" stroke-width="0.7"/><polyline points="-5.67,-6.19 -8.77,-5.59" stroke="rgba(70,210,170,0.55)" stroke-width="0.7"/><polyline points="-8.02,-41.34 -11.42,-40.59" stroke="rgba(70,210,170,0.55)" stroke-width="0.7"/><polyline points="-5.67,-6.19 -8.02,-41.34" stroke="rgba(70,210,170,0.55)" stroke-width="0.7"/><polyline points="-5.67,-6.19 -4.55,-41.83" stroke="rgba(70,210,170,0.55)" stroke-width="0.7"/><polyline points="-8.77,-5.59 -11.78,-4.72" stroke="rgba(70,210,170,0.55)" stroke-width="0.7"/><polyline points="-11.42,-40.59 -14.69,-39.58" stroke="rgba(70,210,170,0.55)" stroke-width="0.7"/><polyline points="-8.77,-5.59 -11.42,-40.59" stroke="rgba(70,210,170,0.55)" stroke-width="0.7"/><polyline points="-8.77,-5.59 -8.02,-41.34" stroke="rgba(70,210,170,0.55)" stroke-width="0.7"/><polyline points="-11.78,-4.72 -14.66,-3.61" stroke="rgba(70,210,170,0.55)" stroke-width="0.7"/><polyline points="-14.69,-39.58 -17.81,-38.31" stroke="rgba(70,210,170,0.55)" stroke-width="0.7"/><polyline points="-11.78,-4.72 -14.69,-39.58" stroke="rgba(70,210,170,0.55)" stroke-width="0.7"/><polyline points="-11.78,-4.72 -11.42,-40.59" stroke="rgba(70,210,170,0.55)" stroke-width="0.7"/><polyline points="-14.66,-3.61 -17.38,-2.26" stroke="rgba(70,210,170,0.55)" stroke-width="0.7"/><polyline points="-17.81,-38.31 -20.74,-36.8" stroke="rgba(70,210,170,0.55)" stroke-width="0.7"/><polyline points="-14.66,-3.61 -17.81,-38.31" stroke="rgba(70,210,170,0.55)" stroke-width="0.7"/><polyline points="-14.66,-3.61 -14.69,-39.58" stroke="rgba(70,210,170,0.55)" stroke-width="0.7"/><polyline points="-17.38,-2.26 -19.92,-0.67" stroke="rgba(70,210,170,0.55)" stroke-width="0.7"/><polyline points="-20.74,-36.8 -23.46,-35.07" stroke="rgba(70,210,170,0.55)" stroke-width="0.7"/><polyline points="-17.38,-2.26 -20.74,-36.8" stroke="rgba(70,210,170,0.55)" stroke-width="0.7"/><polyline points="-17.38,-2.26 -17.81,-38.31" stroke="rgba(70,210,170,0.55)" stroke-width="0.7"/><polyline points="-19.92,-0.67 -22.24,1.12" stroke="rgba(70,210,170,0.55)" stroke-width="0.7"/><polyline points="-23.46,-35.07 -25.92,-33.12" stroke="rgba(70,210,170,0.55)" stroke-width="0.7"/><polyline points="-19.92,-0.67 -23.46,-35.07" stroke="rgba(70,210,170,0.55)" stroke-width="0.7"/><polyline points="-19.92,-0.67 -20.74,-36.8" stroke="rgba(70,210,170,0.55)" stroke-width="0.7"/><polyline points="-22.24,1.12 -24.32,3.11" stroke="rgba(70,210,170,0.55)" stroke-width="0.7"/><polyline points="-25.92,-33.12 -28.1,-30.99" stroke="rgba(70,210,170,0.55)" stroke-width="0.7"/><polyline points="-22.24,1.12 -25.92,-33.12" stroke="rgba(70,210,170,0.55)" stroke-width="0.7"/><polyline points="-22.24,1.12 -23.46,-35.07" stroke="rgba(70,210,170,0.55)" stroke-width="0.7"/><polyline points="-24.32,3.11 -26.13,5.27" stroke="rgba(70,210,170,0.55)" stroke-width="0.7"/><polyline points="-28.1,-30.99 -29.97,-28.68" stroke="rgba(70,210,170,0.55)" stroke-width="0.7"/><polyline points="-24.32,3.11 -28.1,-30.99" stroke="rgba(70,210,170,0.55)" stroke-width="0.7"/><polyline points="-24.32,3.11 -25.92,-33.12" stroke="rgba(70,210,170,0.55)" stroke-width="0.7"/><polyline points="-26.13,5.27 -27.65,7.59" stroke="rgba(70,210,170,0.55)" stroke-width="0.7"/><polyline points="-29.97,-28.68 -31.5,-26.22" stroke="rgba(70,210,170,0.55)" stroke-width="0.7"/><polyline points="-26.13,5.27 -29.97,-28.68" stroke="rgba(70,210,170,0.55)" stroke-width="0.7"/><polyline points="-26.13,5.27 -28.1,-30.99" stroke="rgba(70,210,170,0.55)" stroke-width="0.7"/><polyline points="-27.65,7.59 -28.85,10.04" stroke="rgba(70,210,170,0.55)" stroke-width="0.7"/><polyline points="-31.5,-26.22 -32.67,-23.63" stroke="rgba(70,210,170,0.55)" stroke-width="0.7"/><polyline points="-27.65,7.59 -31.5,-26.22" stroke="rgba(70,210,170,0.55)" stroke-width="0.7"/><polyline points="-27.65,7.59 -29.97,-28.68" stroke="rgba(70,210,170,0.55)" stroke-width="0.7"/><polyline points="-28.85,10.04 -29.71,12.59" stroke="rgba(70,210,170,0.55)" stroke-width="0.7"/><polyline points="-32.67,-23.63 -33.46,-20.96" stroke="rgba(70,210,170,0.55)" stroke-width="0.7"/><polyline points="-28.85,10.04 -32.67,-23.63" stroke="rgba(70,210,170,0.55)" stroke-width="0.7"/><polyline points="-28.85,10.04 -31.5,-26.22" stroke="rgba(70,210,170,0.55)" stroke-width="0.7"/><polyline points="-29.71,12.59 -30.23,15.21" stroke="rgba(70,210,170,0.55)" stroke-width="0.7"/><polyline points="-33.46,-20.96 -33.86,-18.22" stroke="rgba(70,210,170,0.55)" stroke-width="0.7"/><polyline points="-29.71,12.59 -33.46,-20.96" stroke="rgba(70,210,170,0.55)" stroke-width="0.7"/><polyline points="-29.71,12.59 -32.67,-23.63" stroke="rgba(70,210,170,0.55)" stroke-width="0.7"/><polyline points="-30.23,15.21 -30.38,17.88" stroke="rgba(70,210,170,0.55)" stroke-width="0.7"/><polyline points="-33.86,-18.22 -33.84,-15.44" stroke="rgba(70,210,170,0.55)" stroke-width="0.7"/><polyline points="-30.23,15.21 -33.86,-18.22" stroke="rgba(70,210,170,0.55)" stroke-width="0.7"/><polyline points="-30.23,15.21 -33.46,-20.96" stroke="rgba(70,210,170,0.55)" stroke-width="0.7"/><polyline points="-30.38,17.88 -30.16,20.56" stroke="rgba(70,210,170,0.55)" stroke-width="0.7"/><polyline points="-33.84,-15.44 -33.41,-12.67" stroke="rgba(70,210,170,0.55)" stroke-width="0.7"/><polyline points="-30.38,17.88 -33.84,-15.44" stroke="rgba(70,210,170,0.55)" stroke-width="0.7"/><polyline points="-30.38,17.88 -33.86,-18.22" stroke="rgba(70,210,170,0.55)" stroke-width="0.7"/><polyline points="-30.16,20.56 -29.57,23.22" stroke="rgba(70,210,170,0.55)" stroke-width="0.7"/><polyline points="-33.41,-12.67 -32.56,-9.93" stroke="rgba(70,210,170,0.55)" stroke-width="0.7"/><polyline points="-30.16,20.56 -33.41,-12.67" stroke="rgba(70,210,170,0.55)" stroke-width="0.7"/><polyline points="-30.16,20.56 -33.84,-15.44" stroke="rgba(70,210,170,0.55)" stroke-width="0.7"/><polyline points="-29.57,23.22 -28.61,25.83" stroke="rgba(70,210,170,0.55)" stroke-width="0.7"/><polyline points="-32.56,-9.93 -31.3,-7.26" stroke="rgba(70,210,170,0.55)" stroke-width="0.7"/><polyline points="-29.57,23.22 -32.56,-9.93" stroke="rgba(70,210,170,0.55)" stroke-width="0.7"/><polyline points="-29.57,23.22 -33.41,-12.67" stroke="rgba(70,210,170,0.55)" stroke-width="0.7"/><polyline points="-28.61,25.83 -27.28,28.34" stroke="rgba(70,210,170,0.55)" stroke-width="0.7"/><polyline points="-31.3,-7.26 -29.63,-4.71" stroke="rgba(70,210,170,0.55)" stroke-width="0.7"/><polyline points="-28.61,25.83 -31.3,-7.26" stroke="rgba(70,210,170,0.55)" stroke-width="0.7"/><polyline points="-28.61,25.83 -32.56,-9.93" stroke="rgba(70,210,170,0.55)" stroke-width="0.7"/><polyline points="-27.28,28.34 -25.59,30.74" stroke="rgba(70,210,170,0.55)" stroke-width="0.7"/><polyline points="-29.63,-4.71 -27.57,-2.29" stroke="rgba(70,210,170,0.55)" stroke-width="0.7"/><polyline points="-27.28,28.34 -29.63,-4.71" stroke="rgba(70,210,170,0.55)" stroke-width="0.7"/><polyline points="-27.28,28.34 -31.3,-7.26" stroke="rgba(70,210,170,0.55)" stroke-width="0.7"/><polyline points="-25.59,30.74 -23.57,32.97" stroke="rgba(70,210,170,0.55)" stroke-width="0.7"/><polyline points="-27.57,-2.29 -25.14,-0.06" stroke="rgba(70,210,170,0.55)" stroke-width="0.7"/><polyline points="-25.59,30.74 -27.57,-2.29" stroke="rgba(70,210,170,0.55)" stroke-width="0.7"/><polyline points="-25.59,30.74 -29.63,-4.71" stroke="rgba(70,210,170,0.55)" stroke-width="0.7"/><polyline points="-23.57,32.97 -21.24,35.02" stroke="rgba(70,210,170,0.55)" stroke-width="0.7"/><polyline points="-25.14,-0.06 -22.37,1.97" stroke="rgba(70,210,170,0.55)" stroke-width="0.7"/><polyline points="-23.57,32.97 -25.14,-0.06" stroke="rgba(70,210,170,0.55)" stroke-width="0.7"/><polyline points="-23.57,32.97 -27.57,-2.29" stroke="rgba(70,210,170,0.55)" stroke-width="0.7"/><polyline points="-21.24,35.02 -18.61,36.84" stroke="rgba(70,210,170,0.55)" stroke-width="0.7"/><polyline points="-22.37,1.97 -19.29,3.75" stroke="rgba(70,210,170,0.55)" stroke-width="0.7"/><polyline points="-21.24,35.02 -22.37,1.97" stroke="rgba(70,210,170,0.55)" stroke-width="0.7"/><polyline points="-21.24,35.02 -25.14,-0.06" stroke="rgba(70,210,170,0.55)" stroke-width="0.7"/><circle cx="-18.61" cy="36.84" r="1.2" fill="rgba(70,210,170,0.85)" stroke="none"/><circle cx="-15.74" cy="38.42" r="1.2" fill="rgba(70,210,170,0.85)" stroke="none"/><circle cx="-12.64" cy="39.73" r="1.2" fill="rgba(70,210,170,0.85)" stroke="none"/><circle cx="-9.38" cy="40.75" r="1.2" fill="rgba(70,210,170,0.85)" stroke="none"/><circle cx="-5.97" cy="41.46" r="1.2" fill="rgba(70,210,170,0.85)" stroke="none"/><circle cx="-2.49" cy="41.85" r="1.2" fill="rgba(70,210,170,0.85)" stroke="none"/><circle cx="1.03" cy="41.92" r="1.2" fill="rgba(70,210,170,0.85)" stroke="none"/><circle cx="4.53" cy="41.66" r="1.2" fill="rgba(70,210,170,0.85)" stroke="none"/><circle cx="7.97" cy="41.08" r="1.2" fill="rgba(70,210,170,0.85)" stroke="none"/><circle cx="11.3" cy="40.19" r="1.2" fill="rgba(70,210,170,0.85)" stroke="none"/><circle cx="14.47" cy="39" r="1.2" fill="rgba(70,210,170,0.85)" stroke="none"/><circle cx="17.45" cy="37.53" r="1.2" fill="rgba(70,210,170,0.85)" stroke="none"/><circle cx="20.18" cy="35.8" r="1.2" fill="rgba(70,210,170,0.85)" stroke="none"/><circle cx="22.64" cy="33.85" r="1.2" fill="rgba(70,210,170,0.85)" stroke="none"/><circle cx="24.79" cy="31.69" r="1.2" fill="rgba(70,210,170,0.85)" stroke="none"/><circle cx="26.62" cy="29.36" r="1.2" fill="rgba(70,210,170,0.85)" stroke="none"/><circle cx="28.1" cy="26.89" r="1.2" fill="rgba(70,210,170,0.85)" stroke="none"/><circle cx="29.22" cy="24.32" r="1.2" fill="rgba(70,210,170,0.85)" stroke="none"/><circle cx="29.96" cy="21.68" r="1.2" fill="rgba(70,210,170,0.85)" stroke="none"/><circle cx="30.34" cy="19" r="1.2" fill="rgba(70,210,170,0.85)" stroke="none"/><circle cx="30.34" cy="16.32" r="1.2" fill="rgba(70,210,170,0.85)" stroke="none"/><circle cx="29.97" cy="13.67" r="1.2" fill="rgba(70,210,170,0.85)" stroke="none"/><circle cx="29.25" cy="11.09" r="1.2" fill="rgba(70,210,170,0.85)" stroke="none"/><circle cx="28.19" cy="8.59" r="1.2" fill="rgba(70,210,170,0.85)" stroke="none"/><circle cx="26.8" cy="6.22" r="1.2" fill="rgba(70,210,170,0.85)" stroke="none"/><circle cx="25.11" cy="3.99" r="1.2" fill="rgba(70,210,170,0.85)" stroke="none"/><circle cx="23.14" cy="1.92" r="1.2" fill="rgba(70,210,170,0.85)" stroke="none"/><circle cx="20.91" cy="0.05" r="1.2" fill="rgba(70,210,170,0.85)" stroke="none"/><circle cx="18.46" cy="-1.62" r="1.2" fill="rgba(70,210,170,0.85)" stroke="none"/><circle cx="15.81" cy="-3.07" r="1.2" fill="rgba(70,210,170,0.85)" stroke="none"/><circle cx="12.99" cy="-4.29" r="1.2" fill="rgba(70,210,170,0.85)" stroke="none"/><circle cx="10.03" cy="-5.26" r="1.2" fill="rgba(70,210,170,0.85)" stroke="none"/><circle cx="6.97" cy="-5.97" r="1.2" fill="rgba(70,210,170,0.85)" stroke="none"/><circle cx="3.84" cy="-6.43" r="1.2" fill="rgba(70,210,170,0.85)" stroke="none"/><circle cx="0.66" cy="-6.61" r="1.2" fill="rgba(70,210,170,0.85)" stroke="none"/><circle cx="-2.52" cy="-6.54" r="1.2" fill="rgba(70,210,170,0.85)" stroke="none"/><circle cx="-5.67" cy="-6.19" r="1.2" fill="rgba(70,210,170,0.85)" stroke="none"/><circle cx="-8.77" cy="-5.59" r="1.2" fill="rgba(70,210,170,0.85)" stroke="none"/><circle cx="-11.78" cy="-4.72" r="1.2" fill="rgba(70,210,170,0.85)" stroke="none"/><circle cx="-14.66" cy="-3.61" r="1.2" fill="rgba(70,210,170,0.85)" stroke="none"/><circle cx="-17.38" cy="-2.26" r="1.2" fill="rgba(70,210,170,0.85)" stroke="none"/><circle cx="-19.92" cy="-0.67" r="1.2" fill="rgba(70,210,170,0.85)" stroke="none"/><circle cx="-22.24" cy="1.12" r="1.2" fill="rgba(70,210,170,0.85)" stroke="none"/><circle cx="-24.32" cy="3.11" r="1.2" fill="rgba(70,210,170,0.85)" stroke="none"/><circle cx="-26.13" cy="5.27" r="1.2" fill="rgba(70,210,170,0.85)" stroke="none"/><circle cx="-27.65" cy="7.59" r="1.2" fill="rgba(70,210,170,0.85)" stroke="none"/><circle cx="-28.85" cy="10.04" r="1.2" fill="rgba(70,210,170,0.85)" stroke="none"/><circle cx="-29.71" cy="12.59" r="1.2" fill="rgba(70,210,170,0.85)" stroke="none"/><circle cx="-30.23" cy="15.21" r="1.2" fill="rgba(70,210,170,0.85)" stroke="none"/><circle cx="-30.38" cy="17.88" r="1.2" fill="rgba(70,210,170,0.85)" stroke="none"/><circle cx="-30.16" cy="20.56" r="1.2" fill="rgba(70,210,170,0.85)" stroke="none"/><circle cx="-29.57" cy="23.22" r="1.2" fill="rgba(70,210,170,0.85)" stroke="none"/><circle cx="-28.61" cy="25.83" r="1.2" fill="rgba(70,210,170,0.85)" stroke="none"/><circle cx="-27.28" cy="28.34" r="1.2" fill="rgba(70,210,170,0.85)" stroke="none"/><circle cx="-25.59" cy="30.74" r="1.2" fill="rgba(70,210,170,0.85)" stroke="none"/><circle cx="-23.57" cy="32.97" r="1.2" fill="rgba(70,210,170,0.85)" stroke="none"/><circle cx="-21.24" cy="35.02" r="1.2" fill="rgba(70,210,170,0.85)" stroke="none"/><circle cx="-19.29" cy="3.75" r="1.2" fill="rgba(70,210,170,0.85)" stroke="none"/><circle cx="-15.94" cy="5.26" r="1.2" fill="rgba(70,210,170,0.85)" stroke="none"/><circle cx="-12.37" cy="6.48" r="1.2" fill="rgba(70,210,170,0.85)" stroke="none"/><circle cx="-8.63" cy="7.39" r="1.2" fill="rgba(70,210,170,0.85)" stroke="none"/><circle cx="-4.76" cy="7.97" r="1.2" fill="rgba(70,210,170,0.85)" stroke="none"/><circle cx="-0.82" cy="8.21" r="1.2" fill="rgba(70,210,170,0.85)" stroke="none"/><circle cx="3.13" cy="8.11" r="1.2" fill="rgba(70,210,170,0.85)" stroke="none"/><circle cx="7.03" cy="7.67" r="1.2" fill="rgba(70,210,170,0.85)" stroke="none"/><circle cx="10.83" cy="6.9" r="1.2" fill="rgba(70,210,170,0.85)" stroke="none"/><circle cx="14.48" cy="5.81" r="1.2" fill="rgba(70,210,170,0.85)" stroke="none"/><circle cx="17.93" cy="4.42" r="1.2" fill="rgba(70,210,170,0.85)" stroke="none"/><circle cx="21.12" cy="2.74" r="1.2" fill="rgba(70,210,170,0.85)" stroke="none"/><circle cx="24.03" cy="0.81" r="1.2" fill="rgba(70,210,170,0.85)" stroke="none"/><circle cx="26.6" cy="-1.34" r="1.2" fill="rgba(70,210,170,0.85)" stroke="none"/><circle cx="28.82" cy="-3.68" r="1.2" fill="rgba(70,210,170,0.85)" stroke="none"/><circle cx="30.65" cy="-6.19" r="1.2" fill="rgba(70,210,170,0.85)" stroke="none"/><circle cx="32.09" cy="-8.81" r="1.2" fill="rgba(70,210,170,0.85)" stroke="none"/><circle cx="33.11" cy="-11.52" r="1.2" fill="rgba(70,210,170,0.85)" stroke="none"/><circle cx="33.71" cy="-14.28" r="1.2" fill="rgba(70,210,170,0.85)" stroke="none"/><circle cx="33.9" cy="-17.06" r="1.2" fill="rgba(70,210,170,0.85)" stroke="none"/><circle cx="33.67" cy="-19.82" r="1.2" fill="rgba(70,210,170,0.85)" stroke="none"/><circle cx="33.05" cy="-22.53" r="1.2" fill="rgba(70,210,170,0.85)" stroke="none"/><circle cx="32.03" cy="-25.16" r="1.2" fill="rgba(70,210,170,0.85)" stroke="none"/><circle cx="30.65" cy="-27.67" r="1.2" fill="rgba(70,210,170,0.85)" stroke="none"/><circle cx="28.91" cy="-30.04" r="1.2" fill="rgba(70,210,170,0.85)" stroke="none"/><circle cx="26.86" cy="-32.26" r="1.2" fill="rgba(70,210,170,0.85)" stroke="none"/><circle cx="24.51" cy="-34.28" r="1.2" fill="rgba(70,210,170,0.85)" stroke="none"/><circle cx="21.9" cy="-36.11" r="1.2" fill="rgba(70,210,170,0.85)" stroke="none"/><circle cx="19.05" cy="-37.71" r="1.2" fill="rgba(70,210,170,0.85)" stroke="none"/><circle cx="16.01" cy="-39.08" r="1.2" fill="rgba(70,210,170,0.85)" stroke="none"/><circle cx="12.79" cy="-40.2" r="1.2" fill="rgba(70,210,170,0.85)" stroke="none"/><circle cx="9.45" cy="-41.06" r="1.2" fill="rgba(70,210,170,0.85)" stroke="none"/><circle cx="6" cy="-41.66" r="1.2" fill="rgba(70,210,170,0.85)" stroke="none"/><circle cx="2.5" cy="-41.99" r="1.2" fill="rgba(70,210,170,0.85)" stroke="none"/><circle cx="-1.03" cy="-42.05" r="1.2" fill="rgba(70,210,170,0.85)" stroke="none"/><circle cx="-4.55" cy="-41.83" r="1.2" fill="rgba(70,210,170,0.85)" stroke="none"/><circle cx="-8.02" cy="-41.34" r="1.2" fill="rgba(70,210,170,0.85)" stroke="none"/><circle cx="-11.42" cy="-40.59" r="1.2" fill="rgba(70,210,170,0.85)" stroke="none"/><circle cx="-14.69" cy="-39.58" r="1.2" fill="rgba(70,210,170,0.85)" stroke="none"/><circle cx="-17.81" cy="-38.31" r="1.2" fill="rgba(70,210,170,0.85)" stroke="none"/><circle cx="-20.74" cy="-36.8" r="1.2" fill="rgba(70,210,170,0.85)" stroke="none"/><circle cx="-23.46" cy="-35.07" r="1.2" fill="rgba(70,210,170,0.85)" stroke="none"/><circle cx="-25.92" cy="-33.12" r="1.2" fill="rgba(70,210,170,0.85)" stroke="none"/><circle cx="-28.1" cy="-30.99" r="1.2" fill="rgba(70,210,170,0.85)" stroke="none"/><circle cx="-29.97" cy="-28.68" r="1.2" fill="rgba(70,210,170,0.85)" stroke="none"/><circle cx="-31.5" cy="-26.22" r="1.2" fill="rgba(70,210,170,0.85)" stroke="none"/><circle cx="-32.67" cy="-23.63" r="1.2" fill="rgba(70,210,170,0.85)" stroke="none"/><circle cx="-33.46" cy="-20.96" r="1.2" fill="rgba(70,210,170,0.85)" stroke="none"/><circle cx="-33.86" cy="-18.22" r="1.2" fill="rgba(70,210,170,0.85)" stroke="none"/><circle cx="-33.84" cy="-15.44" r="1.2" fill="rgba(70,210,170,0.85)" stroke="none"/><circle cx="-33.41" cy="-12.67" r="1.2" fill="rgba(70,210,170,0.85)" stroke="none"/><circle cx="-32.56" cy="-9.93" r="1.2" fill="rgba(70,210,170,0.85)" stroke="none"/><circle cx="-31.3" cy="-7.26" r="1.2" fill="rgba(70,210,170,0.85)" stroke="none"/><circle cx="-29.63" cy="-4.71" r="1.2" fill="rgba(70,210,170,0.85)" stroke="none"/><circle cx="-27.57" cy="-2.29" r="1.2" fill="rgba(70,210,170,0.85)" stroke="none"/><circle cx="-25.14" cy="-0.06" r="1.2" fill="rgba(70,210,170,0.85)" stroke="none"/><circle cx="-22.37" cy="1.97" r="1.2" fill="rgba(70,210,170,0.85)" stroke="none"/></g></svg>