<svg xmlns="http://www.w3.org/2000/svg" viewBox="0 0 300 300" width="300" height="300"><rect width="300" height="300" fill="#0a1014"/><g transform="translate(150 150) scale(2.73)" fill="none" stroke-linecap="round"><polyline points="-18.79,34.14 -14.47,36.37" stroke="rgba(70,210,170,0.55)" stroke-width="0.7"/><polyline points="-20.65,6.21 -15.91,8.53" stroke="rgba(70,210,170,0.55)" stroke-width="0.7"/><polyline points="-18.79,34.14 -20.65,6.21" stroke="rgba(70,210,170,0.55)" stroke-width="0.7"/><polyline points="0,27.9 -18.79,34.14" stroke="rgba(70,210,170,0.55)" stroke-width="0.7"/><polyline points="0,-33.84 -20.65,6.21" stroke="rgba(70,210,170,0.55)" stroke-width="0.7"/><polyline points="-14.47,36.37 -9.73,38" stroke="rgba(70,210,170,0.55)" stroke-width="0.7"/><polyline points="-15.91,8.53 -10.69,10.21" stroke="rgba(70,210,170,0.55)" stroke-width="0.7"/><polyline points="-14.47,36.37 -15.91,8.53" stroke="rgba(70,210,170,0.55)" stroke-width="0.7"/><polyline points="0,27.9 -14.47,36.37" stroke="rgba(70,210,170,0.55)" stroke-width="0.7"/><polyline points="0,-33.84 -15.91,8.53" stroke="rgba(70,210,170,0.55)" stroke-width="0.7"/><polyline points="-9.73,38 -4.69,38.97" stroke="rgba(70,210,170,0.55)" stroke-width="0.7"/><polyline points="-10.69,10.21 -5.15,11.22" stroke="rgba(70,210,170,0.55)" stroke-width="0.7"/><polyline points="-9.73,38 -10.69,10.21" stroke="rgba(70,210,170,0.55)" stroke-width="0.7"/><polyline points="0,27.9 -9.73,38" stroke="rgba(70,210,170,0.55)" stroke-width="0.7"/><polyline points="0,-33.84 -10.69,10.21" stroke="rgba(70,210,170,0.55)" stroke-width="0.7"/><polyline points="-4.69,38.97 0.49,39.25" stroke="rgba(70,210,170,0.55)" stroke-width="0.7"/><polyline points="-5.15,11.22 0.54,11.52" stroke="rgba(70,210,170,0.55)" stroke-width="0.7"/><polyline points="-4.69,38.97 -5.15,11.22" stroke="rgba(70,210,170,0.55)" stroke-width="0.7"/><polyline points="0,27.9 -4.69,38.97" stroke="rgba(70,210,170,0.55)" stroke-width="0.7"/><polyline points="0,-33.84 -5.15,11.22" stroke="rgba(70,210,170,0.55)" stroke-width="0.7"/><polyline points="0.49,39.25 5.65,38.84" stroke="rgba(70,210,170,0.55)" stroke-width="0.7"/><polyline points="0.54,11.52 6.22,11.09" stroke="rgba(70,210,170,0.55)" stroke-width="0.7"/><polyline points="0.49,39.25 0.54,11.52" stroke="rgba(70,210,170,0.55)" stroke-width="0.7"/><polyline points="0,27.9 0.49,39.25" stroke="rgba(70,210,170,0.55)" stroke-width="0.7"/><polyline points="0,-33.84 0.54,11.52" stroke="rgba(70,210,170,0.55)" stroke-width="0.7"/><polyline points="5.65,38.84 10.65,37.74" stroke="rgba(70,210,170,0.55)" stroke-width="0.7"/><polyline points="6.22,11.09 11.71,9.95" stroke="rgba(70,210,170,0.55)" stroke-width="0.7"/><polyline points="5.65,38.84 6.22,11.09" stroke="rgba(70,210,170,0.55)" stroke-width="0.7"/><polyline points="0,27.9 5.65,38.84" stroke="rgba(70,210,170,0.55)" stroke-width="0.7"/><polyline points="0,-33.84 6.22,11.09" stroke="rgba(70,210,170,0.55)" stroke-width="0.7"/><polyline points="10.65,37.74 15.33,35.99" stroke="rgba(70,210,170,0.55)" stroke-width="0.7"/><polyline points="11.71,9.95 16.84,8.13" stroke="rgba(70,210,170,0.55)" stroke-width="0.7"/><polyline points="10.65,37.74 11.71,9.95" stroke="rgba(70,210,170,0.55)" stroke-width="0.7"/><polyline points="0,27.9 10.65,37.74" stroke="rgba(70,210,170,0.55)" stroke-width="0.7"/><polyline points="0,-33.84 11.71,9.95" stroke="rgba(70,210,170,0.55)" stroke-width="0.7"/><polyline points="15.33,35.99 19.55,33.66" stroke="rgba(70,210,170,0.55)" stroke-width="0.7"/><polyline points="16.84,8.13 21.48,5.71" stroke="rgba(70,210,170,0.55)" stroke-width="0.7"/><polyline points="15.33,35.99 16.84,8.13" stroke="rgba(70,210,170,0.55)" stroke-width="0.7"/><polyline points="0,27.9 15.33,35.99" stroke="rgba(70,210,170,0.55)" stroke-width="0.7"/><polyline points="0,-33.84 16.84,8.13" stroke="rgba(70,210,170,0.55)" stroke-width="0.7"/><polyline points="19.55,33.66 23.21,30.81" stroke="rgba(70,210,170,0.55)" stroke-width="0.7"/><polyline points="21.48,5.71 25.48,2.76" stroke="rgba(70,210,170,0.55)" stroke-width="0.7"/><polyline points="19.55,33.66 21.48,5.71" stroke="rgba(70,210,170,0.55)" stroke-width="0.7"/><polyline points="0,27.9 19.55,33.66" stroke="rgba(70,210,170,0.55)" stroke-width="0.7"/><polyline points="0,-33.84 21.48,5.71" stroke="rgba(70,210,170,0.55)" stroke-width="0.7"/><polyline points="23.21,30.81 26.2,27.55" stroke="rgba(70,210,170,0.55)" stroke-width="0.7"/><polyline points="25.48,2.76 28.75,-0.62" stroke="rgba(70,210,170,0.55)" stroke-width="0.7"/><polyline points="23.21,30.81 25.48,2.76" stroke="rgba(70,210,170,0.55)" stroke-width="0.7"/><polyline points="0,27.9 23.21,30.81" stroke="rgba(70,210,170,0.55)" stroke-width="0.7"/><polyline points="0,-33.84 25.48,2.76" stroke="rgba(70,210,170,0.55)" stroke-width="0.7"/><polyline points="26.2,27.55 28.46,23.96" stroke="rgba(70,210,170,0.55)" stroke-width="0.7"/><polyline points="28.75,-0.62 31.21,-4.33" stroke="rgba(70,210,170,0.55)" stroke-width="0.7"/><polyline points="26.2,27.55 28.75,-0.62" stroke="rgba(70,210,170,0.55)" stroke-width="0.7"/><polyline points="0,27.9 26.2,27.55" stroke="rgba(70,210,170,0.55)" stroke-width="0.7"/><polyline points="0,-33.84 28.75,-0.62" stroke="rgba(70,210,170,0.55)" stroke-width="0.7"/><polyline points="28.46,23.96 29.94,20.15" stroke="rgba(70,210,170,0.55)" stroke-width="0.7"/><polyline points="31.21,-4.33 32.8,-8.26" stroke="rgba(70,210,170,0.55)" stroke-width="0.7"/><polyline points="28.46,23.96 31.21,-4.33" stroke="rgba(70,210,170,0.55)" stroke-width="0.7"/><polyline points="0,27.9 28.46,23.96" stroke="rgba(70,210,170,0.55)" stroke-width="0.7"/><polyline points="0,-33.84 31.21,-4.33" stroke="rgba(70,210,170,0.55)" stroke-width="0.7"/><polyline points="29.94,20.15 30.62,16.23" stroke="rgba(70,210,170,0.55)" stroke-width="0.7"/><polyline points="32.8,-8.26 33.52,-12.29" stroke="rgba(70,210,170,0.55)" stroke-width="0.7"/><polyline points="29.94,20.15 32.8,-8.26" stroke="rgba(70,210,170,0.55)" stroke-width="0.7"/><polyline points="0,27.9 29.94,20.15" stroke="rgba(70,210,170,0.55)" stroke-width="0.7"/><polyline points="0,-33.84 32.8,-8.26" stroke="rgba(70,210,170,0.55)" stroke-width="0.7"/><polyline points="30.62,16.23 30.49,12.31" stroke="rgba(70,210,170,0.55)" stroke-width="0.7"/><polyline points="33.52,-12.29 33.35,-16.33" stroke="rgba(70,210,170,0.55)" stroke-width="0.7"/><polyline points="30.62,16.23 33.52,-12.29" stroke="rgba(70,210,170,0.55)" stroke-width="0.7"/><polyline points="0,27.9 30.62,16.23" stroke="rgba(70,210,170,0.55)" stroke-width="0.7"/><polyline points="0,-33.84 33.52,-12.29" stroke="rgba(70,210,170,0.55)" stroke-width="0.7"/><polyline points="30.49,12.31 29.58,8.49" stroke="rgba(70,210,170,0.55)" stroke-width="0.7"/><polyline points="33.35,-16.33 32.34,-20.25" stroke="rgba(70,210,170,0.55)" stroke-width="0.7"/><polyline points="30.49,12.31 33.35,-16.33" stroke="rgba(70,210,170,0.55)" stroke-width="0.7"/><polyline points="0,27.9 30.49,12.31" stroke="rgba(70,210,170,0.55)" stroke-width="0.7"/><polyline points="0,-33.84 33.35,-16.33" stroke="rgba(70,210,170,0.55)" stroke-width="0.7"/><polyline points="29.58,8.49 27.94,4.86" stroke="rgba(70,210,170,0.55)" stroke-width="0.7"/><polyline points="32.34,-20.25 30.52,-23.98" stroke="rgba(70,210,170,0.55)" stroke-width="0.7"/><polyline points="29.58,8.49 32.34,-20.25" stroke="rgba(70,210,170,0.55)" stroke-width="0.7"/><polyline points="0,27.9 29.58,8.49" stroke="rgba(70,210,170,0.55)" stroke-width="0.7"/><polyline points="0,-33.84 32.34,-20.25" stroke="rgba(70,210,170,0.55)" stroke-width="0.7"/><polyline points="27.94,4.86 25.62,1.51" stroke="rgba(70,210,170,0.55)" stroke-width="0.7"/><polyline points="30.52,-23.98 27.96,-27.41" stroke="rgba(70,210,170,0.55)" stroke-width="0.7"/><polyline points="27.94,4.86 30.52,-23.98" stroke="rgba(70,210,170,0.55)" stroke-width="0.7"/><polyline points="0,27.9 27.94,4.86" stroke="rgba(70,210,170,0.55)" stroke-width="0.7"/><polyline points="0,-33.84 30.52,-23.98" stroke="rgba(70,210,170,0.55)" stroke-width="0.7"/><polyline points="25.62,1.51 22.68,-1.5" stroke="rgba(70,210,170,0.55)" stroke-width="0.7"/><polyline points="27.96,-27.41 24.74,-30.49" stroke="rgba(70,210,170,0.55)" stroke-width="0.7"/><polyline points="25.62,1.51 27.96,-27.41" stroke="rgba(70,210,170,0.55)" stroke-width="0.7"/><polyline points="0,27.9 25.62,1.51" stroke="rgba(70,210,170,0.55)" stroke-width="0.7"/><polyline points="0,-33.84 27.96,-27.41" stroke="rgba(70,210,170,0.55)" stroke-width="0.7"/><polyline points="22.68,-1.5 19.22,-4.09" stroke="rgba(70,210,170,0.55)" stroke-width="0.7"/><polyline points="24.74,-30.49 20.95,-33.14" stroke="rgba(70,210,170,0.55)" stroke-width="0.7"/><polyline points="22.68,-1.5 24.74,-30.49" stroke="rgba(70,210,170,0.55)" stroke-width="0.7"/><polyline points="0,27.9 22.68,-1.5" stroke="rgba(70,210,170,0.55)" stroke-width="0.7"/><polyline points="0,-33.84 24.74,-30.49" stroke="rgba(70,210,170,0.55)" stroke-width="0.7"/><polyline points="19.22,-4.09 15.31,-6.21" stroke="rgba(70,210,170,0.55)" stroke-width="0.7"/><polyline points="20.95,-33.14 16.68,-35.3" stroke="rgba(70,210,170,0.55)" stroke-width="0.7"/><polyline points="19.22,-4.09 20.95,-33.14" stroke="rgba(70,210,170,0.55)" stroke-width="0.7"/><polyline points="0,27.9 19.22,-4.09" stroke="rgba(70,210,170,0.55)" stroke-width="0.7"/><polyline points="0,-33.84 20.95,-33.14" stroke="rgba(70,210,170,0.55)" stroke-width="0.7"/><polyline points="15.31,-6.21 11.05,-7.83" stroke="rgba(70,210,170,0.55)" stroke-width="0.7"/><polyline points="16.68,-35.3 12.04,-36.95" stroke="rgba(70,210,170,0.55)" stroke-width="0.7"/><polyline points="15.31,-6.21 16.68,-35.3" stroke="rgba(70,210,170,0.55)" stroke-width="0.7"/><polyline points="0,27.9 15.31,-6.21" stroke="rgba(70,210,170,0.55)" stroke-width="0.7"/><polyline points="0,-33.84 16.68,-35.3" stroke="rgba(70,210,170,0.55)" stroke-width="0.7"/><polyline points="11.05,-7.83 6.55,-8.9" stroke="rgba(70,210,170,0.55)" stroke-width="0.7"/><polyline points="12.04,-36.95 7.14,-38.05" stroke="rgba(70,210,170,0.55)" stroke-width="0.7"/><polyline points="11.05,-7.83 12.04,-36.95" stroke="rgba(70,210,170,0.55)" stroke-width="0.7"/><polyline points="0,27.9 11.05,-7.83" stroke="rgba(70,210,170,0.55)" stroke-width="0.7"/><polyline points="0,-33.84 12.04,-36.95" stroke="rgba(70,210,170,0.55)" stroke-width="0.7"/><polyline points="6.55,-8.9 1.9,-9.42" stroke="rgba(70,210,170,0.55)" stroke-width="0.7"/><polyline points="7.14,-38.05 2.07,-38.57" stroke="rgba(70,210,170,0.55)" stroke-width="0.7"/><polyline points="6.55,-8.9 7.14,-38.05" stroke="rgba(70,210,170,0.55)" stroke-width="0.7"/><polyline points="0,27.9 6.55,-8.9" stroke="rgba(70,210,170,0.55)" stroke-width="0.7"/><polyline points="0,-33.84 7.14,-38.05" stroke="rgba(70,210,170,0.55)" stroke-width="0.7"/><polyline points="1.9,-9.42 -2.79,-9.36" stroke="rgba(70,210,170,0.55)" stroke-width="0.7"/><polyline points="2.07,-38.57 -3.04,-38.52" stroke="rgba(70,210,170,0.55)" stroke-width="0.7"/><polyline points="1.9,-9.42 2.07,-38.57" stroke="rgba(70,210,170,0.55)" stroke-width="0.7"/><polyline points="0,27.9 1.9,-9.42" stroke="rgba(70,210,170,0.55)" stroke-width="0.7"/><polyline points="0,-33.84 2.07,-38.57" stroke="rgba(70,210,170,0.55)" stroke-width="0.7"/><polyline points="-2.79,-9.36 -7.42,-8.74" stroke="rgba(70,210,170,0.55)" stroke-width="0.7"/><polyline points="-3.04,-38.52 -8.08,-37.88" stroke="rgba(70,210,170,0.55)" stroke-width="0.7"/><polyline points="-2.79,-9.36 -3.04,-38.52" stroke="rgba(70,210,170,0.55)" stroke-width="0.7"/><polyline points="0,27.9 -2.79,-9.36" stroke="rgba(70,210,170,0.55)" stroke-width="0.7"/><polyline points="0,-33.84 -3.04,-38.52" stroke="rgba(70,210,170,0.55)" stroke-width="0.7"/><polyline points="-7.42,-8.74 -11.88,-7.56" stroke="rgba(70,210,170,0.55)" stroke-width="0.7"/><polyline points="-8.08,-37.88 -12.94,-36.68" stroke="rgba(70,210,170,0.55)" stroke-width="0.7"/><polyline points="-7.42,-8.74 -8.08,-37.88" stroke="rgba(70,210,170,0.55)" stroke-width="0.7"/><polyline points="0,27.9 -7.42,-8.74" stroke="rgba(70,210,170,0.55)" stroke-width="0.7"/><polyline points="0,-33.84 -8.08,-37.88" stroke="rgba(70,210,170,0.55)" stroke-width="0.7"/><polyline points="-11.88,-7.56 -16.08,-5.85" stroke="rgba(70,210,170,0.55)" stroke-width="0.7"/><polyline points="-12.94,-36.68 -17.52,-34.93" stroke="rgba(70,210,170,0.55)" stroke-width="0.7"/><polyline points="-11.88,-7.56 -12.94,-36.68" stroke="rgba(70,210,170,0.55)" stroke-width="0.7"/><polyline points="0,27.9 -11.88,-7.56" stroke="rgba(70,210,170,0.55)" stroke-width="0.7"/><polyline points="0,-33.84 -12.94,-36.68" stroke="rgba(70,210,170,0.55)" stroke-width="0.7"/><polyline points="-16.08,-5.85 -19.91,-3.63" stroke="rgba(70,210,170,0.55)" stroke-width="0.7"/><polyline points="-17.52,-34.93 -21.71,-32.67" stroke="rgba(70,210,170,0.55)" stroke-width="0.7"/><polyline points="-16.08,-5.85 -17.52,-34.93" stroke="rgba(70,210,170,0.55)" stroke-width="0.7"/><polyline points="0,27.9 -16.08,-5.85" stroke="rgba(70,210,170,0.55)" stroke-width="0.7"/><polyline points="0,-33.84 -17.52,-34.93" stroke="rgba(70,210,170,0.55)" stroke-width="0.7"/><polyline points="-19.91,-3.63 -23.28,-0.96" stroke="rgba(70,210,170,0.55)" stroke-width="0.7"/><polyline points="-21.71,-32.67 -25.4,-29.94" stroke="rgba(70,210,170,0.55)" stroke-width="0.7"/><polyline points="-19.91,-3.63 -21.71,-32.67" stroke="rgba(70,210,170,0.55)" stroke-width="0.7"/><polyline points="0,27.9 -19.91,-3.63" stroke="rgba(70,210,170,0.55)" stroke-width="0.7"/><polyline points="0,-33.84 -21.71,-32.67" stroke="rgba(70,210,170,0.55)" stroke-width="0.7"/><polyline points="-23.28,-0.96 -26.1,2.12" stroke="rgba(70,210,170,0.55)" stroke-width="0.7"/><polyline points="-25.4,-29.94 -28.5,-26.79" stroke="rgba(70,210,170,0.55)" stroke-width="0.7"/><polyline points="-23.28,-0.96 -25.4,-29.94" stroke="rgba(70,210,170,0.55)" stroke-width="0.7"/><polyline points="0,27.9 -23.28,-0.96" stroke="rgba(70,210,170,0.55)" stroke-width="0.7"/><polyline points="0,-33.84 -25.4,-29.94" stroke="rgba(70,210,170,0.55)" stroke-width="0.7"/><polyline points="-26.1,2.12 -28.31,5.53" stroke="rgba(70,210,170,0.55)" stroke-width="0.7"/><polyline points="-28.5,-26.79 -30.92,-23.29" stroke="rgba(70,210,170,0.55)" stroke-width="0.7"/><polyline points="-26.1,2.12 -28.5,-26.79" stroke="rgba(70,210,170,0.55)" stroke-width="0.7"/><polyline points="0,27.9 -26.1,2.12" stroke="rgba(70,210,170,0.55)" stroke-width="0.7"/><polyline points="0,-33.84 -28.5,-26.79" stroke="rgba(70,210,170,0.55)" stroke-width="0.7"/><polyline points="-28.31,5.53 -29.81,9.2" stroke="rgba(70,210,170,0.55)" stroke-width="0.7"/><polyline points="-30.92,-23.29 -32.59,-19.52" stroke="rgba(70,210,170,0.55)" stroke-width="0.7"/><polyline points="-28.31,5.53 -30.92,-23.29" stroke="rgba(70,210,170,0.55)" stroke-width="0.7"/><polyline points="0,27.9 -28.31,5.53" stroke="rgba(70,210,170,0.55)" stroke-width="0.7"/><polyline points="0,-33.84 -30.92,-23.29" stroke="rgba(70,210,170,0.55)" stroke-width="0.7"/><polyline points="-29.81,9.2 -30.57,13.05" stroke="rgba(70,210,170,0.55)" stroke-width="0.7"/><polyline points="-32.59,-19.52 -33.45,-15.57" stroke="rgba(70,210,170,0.55)" stroke-width="0.7"/><polyline points="-29.81,9.2 -32.59,-19.52" stroke="rgba(70,210,170,0.55)" stroke-width="0.7"/><polyline points="0,27.9 -29.81,9.2" stroke="rgba(70,210,170,0.55)" stroke-width="0.7"/><polyline points="0,-33.84 -32.59,-19.52" stroke="rgba(70,210,170,0.55)" stroke-width="0.7"/><polyline points="-30.57,13.05 -30.55,16.98" stroke="rgba(70,210,170,0.55)" stroke-width="0.7"/><polyline points="-33.45,-15.57 -33.45,-11.53" stroke="rgba(70,210,170,0.55)" stroke-width="0.7"/><polyline points="-30.57,13.05 -33.45,-15.57" stroke="rgba(70,210,170,0.55)" stroke-width="0.7"/><polyline points="0,27.9 -30.57,13.05" stroke="rgba(70,210,170,0.55)" stroke-width="0.7"/><polyline points="0,-33.84 -33.45,-15.57" stroke="rgba(70,210,170,0.55)" stroke-width="0.7"/><polyline points="-30.55,16.98 -29.72,20.88" stroke="rgba(70,210,170,0.55)" stroke-width="0.7"/><polyline points="-33.45,-11.53 -32.57,-7.5" stroke="rgba(70,210,170,0.55)" stroke-width="0.7"/><polyline points="-30.55,16.98 -33.45,-11.53" stroke="rgba(70,210,170,0.55)" stroke-width="0.7"/><polyline points="0,27.9 -30.55,16.98" stroke="rgba(70,210,170,0.55)" stroke-width="0.7"/><polyline points="0,-33.84 -33.45,-11.53" stroke="rgba(70,210,170,0.55)" stroke-width="0.7"/><polyline points="-29.72,20.88 -28.09,24.65" stroke="rgba(70,210,170,0.55)" stroke-width="0.7"/><polyline points="-32.57,-7.5 -30.81,-3.61" stroke="rgba(70,210,170,0.55)" stroke-width="0.7"/><polyline points="-29.72,20.88 -32.57,-7.5" stroke="rgba(70,210,170,0.55)" stroke-width="0.7"/><polyline points="0,27.9 -29.72,20.88" stroke="rgba(70,210,170,0.55)" stroke-width="0.7"/><polyline points="0,-33.84 -32.57,-7.5" stroke="rgba(70,210,170,0.55)" stroke-width="0.7"/><polyline points="-28.09,24.65 -25.69,28.19" stroke="rgba(70,210,170,0.55)" stroke-width="0.7"/><polyline points="-30.81,-3.61 -28.19,0.05" stroke="rgba(70,210,170,0.55)" stroke-width="0.7"/><polyline points="-28.09,24.65 -30.81,-3.61" stroke="rgba(70,210,170,0.55)" stroke-width="0.7"/><polyline points="0,27.9 -28.09,24.65" stroke="rgba(70,210,170,0.55)" stroke-width="0.7"/><polyline points="0,-33.84 -30.81,-3.61" stroke="rgba(70,210,170,0.55)" stroke-width="0.7"/><polyline points="-25.69,28.19 -22.57,31.39" stroke="rgba(70,210,170,0.55)" stroke-width="0.7"/><polyline points="-28.19,0.05 -24.78,3.36" stroke="rgba(70,210,170,0.55)" stroke-width="0.7"/><polyline points="-25.69,28.19 -28.19,0.05" stroke="rgba(70,210,170,0.55)" stroke-width="0.7"/><polyline points="0,27.9 -25.69,28.19" stroke="rgba(70,210,170,0.55)" stroke-width="0.7"/><polyline points="0,-33.84 -28.19,0.05" stroke="rgba(70,210,170,0.55)" stroke-width="0.7"/><polyline points="-22.57,31.39 -18.79,34.14" stroke="rgba(70,210,170,0.55)" stroke-width="0.7"/><polyline points="-24.78,3.36 -20.65,6.21" stroke="rgba(70,210,170,0.55)" stroke-width="0.7"/><polyline points="-22.57,31.39 -24.78,3.36" stroke="rgba(70,210,170,0.55)" stroke-width="0.7"/><polyline points="0,27.9 -22.57,31.39" stroke="rgba(70,210,170,0.55)" stroke-width="0.7"/><polyline points="0,-33.84 -24.78,3.36" stroke="rgba(70,210,170,0.55)" stroke-width="0.7"/><circle cx="0" cy="27.9" r="1.2" fill="rgba(70,210,170,0.85)" stroke="none"/><circle cx="0" cy="-33.84" r="1.2" fill="rgba(70,210,170,0.85)" stroke="none"/><circle cx="-18.79" cy="34.14" r="1.2" fill="rgba(70,210,170,0.85)" stroke="none"/><circle cx="-14.47" cy="36.37" r="1.2" fill="rgba(70,210,170,0.85)" stroke="none"/><circle cx="-9.73" cy="38" r="1.2" fill="rgba(70,210,170,0.85)" stroke="none"/><circle cx="-4.69" cy="38.97" r="1.2" fill="rgba(70,210,170,0.85)" stroke="none"/><circle cx="0.49" cy="39.25" r="1.2" fill="rgba(70,210,170,0.85)" stroke="none"/><circle cx="5.65" cy="38.84" r="1.2" fill="rgba(70,210,170,0.85)" stroke="none"/><circle cx="10.65" cy="37.74" r="1.2" fill="rgba(70,210,170,0.85)" stroke="none"/><circle cx="15.33" cy="35.99" r="1.2" fill="rgba(70,210,170,0.85)" stroke="none"/><circle cx="19.55" cy="33.66" r="1.2" fill="rgba(70,210,170,0.85)" stroke="none"/><circle cx="23.21" cy="30.81" r="1.2" fill="rgba(70,210,170,0.85)" stroke="none"/><circle cx="26.2" cy="27.55" r="1.2" fill="rgba(70,210,170,0.85)" stroke="none"/><circle cx="28.46" cy="23.96" r="1.2" fill="rgba(70,210,170,0.85)" stroke="none"/><circle cx="29.94" cy="20.15" r="1.2" fill="rgba(70,210,170,0.85)" stroke="none"/><circle cx="30.62" cy="16.23" r="1.2" fill="rgba(70,210,170,0.85)" stroke="none"/><circle cx="30.49" cy="12.31" r="1.2" fill="rgba(70,210,170,0.85)" stroke="none"/><circle cx="29.58" cy="8.49" r="1.2" fill="rgba(70,210,170,0.85)" stroke="none"/><circle cx="27.94" cy="4.86" r="1.2" fill="rgba(70,210,170,0.85)" stroke="none"/><circle cx="25.62" cy="1.51" r="1.2" fill="rgba(70,210,170,0.85)" stroke="none"/><circle cx="22.68" cy="-1.5" r="1.2" fill="rgba(70,210,170,0.85)" stroke="none"/><circle cx="19.22" cy="-4.09" r="1.2" fill="rgba(70,210,170,0.85)" stroke="none"/><circle cx="15.31" cy="-6.21" r="1.2" fill="rgba(70,210,170,0.85)" stroke="none"/><circle cx="11.05" cy="-7.83" r="1.2" fill="rgba(70,210,170,0.85)" stroke="none"/><circle cx="6.55" cy="-8.9" r="1.2" fill="rgba(70,210,170,0.85)" stroke="none"/><circle cx="1.9" cy="-9.42" r="1.2" fill="rgba(70,210,170,0.85)" stroke="none"/><circle cx="-2.79" cy="-9.36" r="1.2" fill="rgba(70,210,170,0.85)" stroke="none"/><circle cx="-7.42" cy="-8.74" r="1.2" fill="rgba(70,210,170,0.85)" stroke="none"/><circle cx="-11.88" cy="-7.56" r="1.2" fill="rgba(70,210,170,0.85)" stroke="none"/><circle cx="-16.08" cy="-5.85" r="1.2" fill="rgba(70,210,170,0.85)" stroke="none"/><circle cx="-19.91" cy="-3.63" r="1.2" fill="rgba(70,210,170,0.85)" stroke="none"/><circle cx="-23.28" cy="-0.96" r="1.2" fill="rgba(70,210,170,0.85)" stroke="none"/><circle cx="-26.1" cy="2.12" r="1.2" fill="rgba(70,210,170,0.85)" stroke="none"/><circle cx="-28.31" cy="5.53" r="1.2" fill="rgba(70,210,170,0.85)" stroke="none"/><circle cx="-29.81" cy="9.2" r="1.2" fill="rgba(70,210,170,0.85)" stroke="none"/><circle cx="-30.57" cy="13.05" r="1.2" fill="rgba(70,210,170,0.85)" stroke="none"/><circle cx="-30.55" cy="16.98" r="1.2" fill="rgba(70,210,170,0.85)" stroke="none"/><circle cx="-29.72" cy="20.88" r="1.2" fill="rgba(70,210,170,0.85)" stroke="none"/><circle cx="-28.09" cy="24.65" r="1.2" fill="rgba(70,210,170,0.85)" stroke="none"/><circle cx="-25.69" cy="28.19" r="1.2" fill="rgba(70,210,170,0.85)" stroke="none"/><circle cx="-22.57" cy="31.39" r="1.2" fill="rgba(70,210,170,0.85)" stroke="none"/><circle cx="-20.65" cy="6.21" r="1.2" fill="rgba(70,210,170,0.85)" stroke="none"/><circle cx="-15.91" cy="8.53" r="1.2" fill="rgba(70,210,170,0.85)" stroke="none"/><circle cx="-10.69" cy="10.21" r="1.2" fill="rgba(70,210,170,0.85)" stroke="none"/><circle cx="-5.15" cy="11.22" r="1.2" fill="rgba(70,210,170,0.85)" stroke="none"/><circle cx="0.54" cy="11.52" r="1.2" fill="rgba(70,210,170,0.85)" stroke="none"/><circle cx="6.22" cy="11.09" r="1.2" fill="rgba(70,210,170,0.85)" stroke="none"/><circle cx="11.71" cy="9.95" r="1.2" fill="rgba(70,210,170,0.85)" stroke="none"/><circle cx="16.84" cy="8.13" r="1.2" fill="rgba(70,210,170,0.85)" stroke="none"/><circle cx="21.48" cy="5.71" r="1.2" fill="rgba(70,210,170,0.85)" stroke="none"/><circle cx="25.48" cy="2.76" r="1.2" fill="rgba(70,210,170,0.85)" stroke="none"/><circle cx="28.75" cy="-0.62" r="1.2" fill="rgba(70,210,170,0.85)" stroke="none"/><circle cx="31.21" cy="-4.33" r="1.2" fill="rgba(70,210,170,0.85)" stroke="none"/><circle cx="32.8" cy="-8.26" r="1.2" fill="rgba(70,210,170,0.85)" stroke="none"/><circle cx="33.52" cy="-12.29" r="1.2" fill="rgba(70,210,170,0.85)" stroke="none"/><circle cx="33.35" cy="-16.33" r="1.2" fill="rgba(70,210,170,0.85)" stroke="none"/><circle cx="32.34" cy="-20.25" r="1.2" fill="rgba(70,210,170,0.85)" stroke="none"/><circle cx="30.52" cy="-23.98" r="1.2" fill="rgba(70,210,170,0.85)" stroke="none"/><circle cx="27.96" cy="-27.41" r="1.2" fill="rgba(70,210,170,0.85)" stroke="none"/><circle cx="24.74" cy="-30.49" r="1.2" fill="rgba(70,210,170,0.85)" stroke="none"/><circle cx="20.95" cy="-33.14" r="1.2" fill="rgba(70,210,170,0.85)" stroke="none"/><circle cx="16.68" cy="-35.3" r="1.2" fill="rgba(70,210,170,0.85)" stroke="none"/><circle cx="12.04" cy="-36.95" r="1.2" fill="rgba(70,210,170,0.85)" stroke="none"/><circle cx="7.14" cy="-38.05" r="1.2" fill="rgba(70,210,170,0.85)" stroke="none"/><circle cx="2.07" cy="-38.57" r="1.2" fill="rgba(70,210,170,0.85)" stroke="none"/><circle cx="-3.04" cy="-38.52" r="1.2" fill="rgba(70,210,170,0.85)" stroke="none"/><circle cx="-8.08" cy="-37.88" r="1.2" fill="rgba(70,210,170,0.85)" stroke="none"/><circle cx="-12.94" cy="-36.68" r="1.2" fill="rgba(70,210,170,0.85)" stroke="none"/><circle cx="-17.52" cy="-34.93" r="1.2" fill="rgba(70,210,170,0.85)" stroke="none"/><circle cx="-21.71" cy="-32.67" r="1.2" fill="rgba(70,210,170,0.85)" stroke="none"/><circle cx="-25.4" cy="-29.94" r="1.2" fill="rgba(70,210,170,0.85)" stroke="none"/><circle cx="-28.5" cy="-26.79" r="1.2" fill="rgba(70,210,170,0.85)" stroke="none"/><circle cx="-30.92" cy="-23.29" r="1.2" fill="rgba(70,210,170,0.85)" stroke="none"/><circle cx="-32.59" cy="-19.52" r="1.2" fill="rgba(70,210,170,0.85)" stroke="none"/><circle cx="-33.45" cy="-15.57" r="1.2" fill="rgba(70,210,170,0.85)" stroke="none"/><circle cx="-33.45" cy="-11.53" r="1.2" fill="rgba(70,210,170,0.85)" stroke="none"/><circle cx="-32.57" cy="-7.5" r="1.2" fill="rgba(70,210,170,0.85)" stroke="none"/><circle cx="-30.81" cy="-3.61" r="1.2" fill="rgba(70,210,170,0.85)" stroke="none"/><circle cx="-28.19" cy="0.05" r="1.2" fill="rgba(70,210,170,0.85)" stroke="none"/><circle cx="-24.78" cy="3.36" r="1.2" fill="rgba(70,210,170,0.85)" stroke="none"/></g></svg>