<svg xmlns="http://www.w3.org/2000/svg" viewBox="0 0 300 300" width="300" height="300"><rect width="300" height="300" fill="#0a1014"/><g transform="translate(150 150) scale(2.73)" fill="none" stroke-linecap="round"><polyline points="38,0 38,3.97 37.99,7.9 37.97,11.74 37.95,15.46 37.92,19 37.88,22.34 37.84,25.43 37.79,28.24 37.74,30.74 37.67,32.91 37.61,34.71 37.53,36.14 37.45,37.17 37.36,37.79 37.27,38 37.17,37.79 37.06,37.17 36.95,36.14 36.83,34.71 36.71,32.91 36.57,30.74 36.44,28.24 36.29,25.43 36.14,22.34 35.98,19 35.82,15.46 35.65,11.74 35.48,7.9 35.29,3.97 35.11,0 34.91,-3.97 34.71,-7.9 34.51,-11.74 34.3,-15.46 34.08,-19 33.86,-22.34 33.63,-25.43 33.4,-28.24 33.15,-30.74 32.91,-32.91 32.66,-34.71 32.4,-36.14 32.14,-37.17 31.87,-37.79 31.6,-38 31.32,-37.79 31.03,-37.17 30.74,-36.14 30.45,-34.71 30.15,-32.91 29.84,-30.74 29.53,-28.24 29.22,-25.43 28.9,-22.34 28.57,-19 28.24,-15.46 27.9,-11.74 27.56,-7.9 27.22,-3.97 26.87,0 26.52,3.97 26.16,7.9 25.79,11.74 25.43,15.46 25.06,19 24.68,22.34 24.3,25.43 23.91,28.24 23.53,30.74 23.13,32.91 22.74,34.71 22.34,36.14 21.93,37.17 21.52,37.79 21.11,38 20.7,37.79 20.28,37.17 19.85,36.14 19.43,34.71 19,32.91 18.57,30.74 18.13,28.24 17.69,25.43 17.25,22.34 16.81,19 16.36,15.46 15.91,11.74 15.46,7.9 15,3.97 14.54,0 14.08,-3.97 13.62,-7.9 13.15,-11.74 12.68,-15.46 12.21,-19 11.74,-22.34 11.27,-25.43 10.79,-28.24 10.31,-30.74 9.84,-32.91 9.35,-34.71 8.87,-36.14 8.39,-37.17 7.9,-37.79 7.41,-38 6.92,-37.79 6.44,-37.17 5.94,-36.14 5.45,-34.71 4.96,-32.91 4.47,-30.74 3.97,-28.24 3.48,-25.43 2.98,-22.34 2.49,-19 1.99,-15.46 1.49,-11.74 0.99,-7.9 0.5,-3.97 0,0 -0.5,3.97 -0.99,7.9 -1.49,11.74 -1.99,15.46 -2.49,19 -2.98,22.34 -3.48,25.43 -3.97,28.24 -4.47,30.74 -4.96,32.91 -5.45,34.71 -5.94,36.14 -6.44,37.17 -6.92,37.79 -7.41,38 -7.9,37.79 -8.39,37.17 -8.87,36.14 -9.35,34.71 -9.84,32.91 -10.31,30.74 -10.79,28.24 -11.27,25.43 -11.74,22.34 -12.21,19 -12.68,15.46 -13.15,11.74 -13.62,7.9 -14.08,3.97 -14.54,0 -15,-3.97 -15.46,-7.9 -15.91,-11.74 -16.36,-15.46 -16.81,-19 -17.25,-22.34 -17.69,-25.43 -18.13,-28.24 -18.57,-30.74 -19,-32.91 -19.43,-34.71 -19.85,-36.14 -20.28,-37.17 -20.7,-37.79 -21.11,-38 -21.52,-37.79 -21.93,-37.17 -22.34,-36.14 -22.74,-34.71 -23.13,-32.91 -23.53,-30.74 -23.91,-28.24 -24.3,-25.43 -24.68,-22.34 -25.06,-19 -25.43,-15.46 -25.79,-11.74 -26.16,-7.9 -26.52,-3.97 -26.87,0 -27.22,3.97 -27.56,7.9 -27.9,11.74 -28.24,15.46 -28.57,19 -28.9,22.34 -29.22,25.43 -29.53,28.24 -29.84,30.74 -30.15,32.91 -30.45,34.71 -30.74,36.14 -31.03,37.17 -31.32,37.79 -31.6,38 -31.87,37.79 -32.14,37.17 -32.4,36.14 -32.66,34.71 -32.91,32.91 -33.15,30.74 -33.4,28.24 -33.63,25.43 -33.86,22.34 -34.08,19 -34.3,15.46 -34.51,11.74 -34.71,7.9 -34.91,3.97 -35.11,0 -35.29,-3.97 -35.48,-7.9 -35.65,-11.74 -35.82,-15.46 -35.98,-19 -36.14,-22.34 -36.29,-25.43 -36.44,-28.24 -36.57,-30.74 -36.71,-32.91 -36.83,-34.71 -36.95,-36.14 -37.06,-37.17 -37.17,-37.79 -37.27,-38 -37.36,-37.79 -37.45,-37.17 -37.53,-36.14 -37.61,-34.71 -37.67,-32.91 -37.74,-30.74 -37.79,-28.24 -37.84,-25.43 -37.88,-22.34 -37.92,-19 -37.95,-15.46 -37.97,-11.74 -37.99,-7.9 -38,-3.97 -38,0 -38,3.97 -37.99,7.9 -37.97,11.74 -37.95,15.46 -37.92,19 -37.88,22.34 -37.84,25.43 -37.79,28.24 -37.74,30.74 -37.67,32.91 -37.61,34.71 -37.53,36.14 -37.45,37.17 -37.36,37.79 -37.27,38 -37.17,37.79 -37.06,37.17 -36.95,36.14 -36.83,34.71 -36.71,32.91 -36.57,30.74 -36.44,28.24 -36.29,25.43 -36.14,22.34 -35.98,19 -35.82,15.46 -35.65,11.74 -35.48,7.9 -35.29,3.97 -35.11,0 -34.91,-3.97 -34.71,-7.9 -34.51,-11.74 -34.3,-15.46 -34.08,-19 -33.86,-22.34 -33.63,-25.43 -33.4,-28.24 -33.15,-30.74 -32.91,-32.91 -32.66,-34.71 -32.4,-36.14 -32.14,-37.17 -31.87,-37.79 -31.6,-38 -31.32,-37.79 -31.03,-37.17 -30.74,-36.14 -30.45,-34.71 -30.15,-32.91 -29.84,-30.74 -29.53,-28.24 -29.22,-25.43 -28.9,-22.34 -28.57,-19 -28.24,-15.46 -27.9,-11.74 -27.56,-7.9 -27.22,-3.97 -26.87,0 -26.52,3.97 -26.16,7.9 -25.79,11.74 -25.43,15.46 -25.06,19 -24.68,22.34 -24.3,25.43 -23.91,28.24 -23.53,30.74 -23.13,32.91 -22.74,34.71 -22.34,36.14 -21.93,37.17 -21.52,37.79 -21.11,38 -20.7,37.79 -20.28,37.17 -19.85,36.14 -19.43,34.71 -19,32.91 -18.57,30.74 -18.13,28.24 -17.69,25.43 -17.25,22.34 -16.81,19 -16.36,15.46 -15.91,11.74 -15.46,7.9 -15,3.97 -14.54,0 -14.08,-3.97 -13.62,-7.9 -13.15,-11.74 -12.68,-15.46 -12.21,-19 -11.74,-22.34 -11.27,-25.43 -10.79,-28.24 -10.31,-30.74 -9.84,-32.91 -9.35,-34.71 -8.87,-36.14 -8.39,-37.17 -7.9,-37.79 -7.41,-38 -6.92,-37.79 -6.44,-37.17 -5.94,-36.14 -5.45,-34.71 -4.96,-32.91 -4.47,-30.74 -3.97,-28.24 -3.48,-25.43 -2.98,-22.34 -2.49,-19 -1.99,-15.46 -1.49,-11.74 -0.99,-7.9 -0.5,-3.97 0,0 0.5,3.97 0.99,7.9 1.49,11.74 1.99,15.46 2.49,19 2.98,22.34 3.48,25.43 3.97,28.24 4.47,30.74 4.96,32.91 5.45,34.71 5.94,36.14 6.44,37.17 6.92,37.79 7.41,38 7.9,37.79 8.39,37.17 8.87,36.14 9.35,34.71 9.84,32.91 10.31,30.74 10.79,28.24 11.27,25.43 11.74,22.34 12.21,19 12.68,15.46 13.15,11.74 13.62,7.9 14.08,3.97 14.54,0 15,-3.97 15.46,-7.9 15.91,-11.74 16.36,-15.46 16.81,-19 17.25,-22.34 17.69,-25.43 18.13,-28.24 18.57,-30.74 19,-32.91 19.43,-34.71 19.85,-36.14 20.28,-37.17 20.7,-37.79 21.11,-38 21.52,-37.79 21.93,-37.17 22.34,-36.14 22.74,-34.71 23.13,-32.91 23.53,-30.74 23.91,-28.24 24.3,-25.43 24.68,-22.34 25.06,-19 25.43,-15.46 25.79,-11.74 26.16,-7.9 26.52,-3.97 26.87,0 27.22,3.97 27.56,7.9 27.9,11.74 28.24,15.46 28.57,19 28.9,22.34 29.22,25.43 29.53,28.24 29.84,30.74 30.15,32.91 30.45,34.71 30.74,36.14 31.03,37.17 31.32,37.79 31.6,38 31.87,37.79 32.14,37.17 32.4,36.14 32.66,34.71 32.91,32.91 33.15,30.74 33.4,28.24 33.63,25.43 33.86,22.34 34.08,19 34.3,15.46 34.51,11.74 34.71,7.9 34.91,3.97 35.11,0 35.29,-3.97 35.48,-7.9 35.65,-11.74 35.82,-15.46 35.98,-19 36.14,-22.34 36.29,-25.43 36.44,-28.24 36.57,-30.74 36.71,-32.91 36.83,-34.71 36.95,-36.14 37.06,-37.17 37.17,-37.79 37.27,-38 37.36,-37.79 37.45,-37.17 37.53,-36.14 37.61,-34.71 37.67,-32.91 37.74,-30.74 37.79,-28.24 37.84,-25.43 37.88,-22.34 37.92,-19 37.95,-15.46 37.97,-11.74 37.99,-7.9 38,-3.97 38,0" stroke="rgba(70,210,170,0.60)" stroke-width="0.8"/></g></svg>