<svg xmlns="http://www.w3.org/2000/svg" viewBox="0 0 300 300" width="300" height="300"><rect width="300" height="300" fill="#0a1014"/><g transform="translate(150 150) scale(2.73)" fill="none" stroke-linecap="round"><polyline points="-18.44,39.49 -9.78,43.24" stroke="rgba(70,210,170,0.55)" stroke-width="0.7"/><polyline points="-21.09,-0.5 -11.2,3.46" stroke="rgba(70,210,170,0.55)" stroke-width="0.7"/><polyline points="-18.44,39.49 -21.09,-0.5" stroke="rgba(70,210,170,0.55)" stroke-width="0.7"/><polyline points="-9.78,43.24 -0.03,44.56" stroke="rgba(70,210,170,0.55)" stroke-width="0.7"/><polyline points="-11.2,3.46 -0.03,4.84" stroke="rgba(70,210,170,0.55)" stroke-width="0.7"/><polyline points="-9.78,43.24 -11.2,3.46" stroke="rgba(70,210,170,0.55)" stroke-width="0.7"/><polyline points="-0.03,44.56 9.73,43.26" stroke="rgba(70,210,170,0.55)" stroke-width="0.7"/><polyline points="-0.03,4.84 11.14,3.47" stroke="rgba(70,210,170,0.55)" stroke-width="0.7"/><polyline points="-0.03,44.56 -0.03,4.84" stroke="rgba(70,210,170,0.55)" stroke-width="0.7"/><polyline points="9.73,43.26 18.4,39.52" stroke="rgba(70,210,170,0.55)" stroke-width="0.7"/><polyline points="11.14,3.47 21.04,-0.47" stroke="rgba(70,210,170,0.55)" stroke-width="0.7"/><polyline points="9.73,43.26 11.14,3.47" stroke="rgba(70,210,170,0.55)" stroke-width="0.7"/><polyline points="18.4,39.52 25.05,33.79" stroke="rgba(70,210,170,0.55)" stroke-width="0.7"/><polyline points="21.04,-0.47 28.6,-6.49" stroke="rgba(70,210,170,0.55)" stroke-width="0.7"/><polyline points="18.4,39.52 21.04,-0.47" stroke="rgba(70,210,170,0.55)" stroke-width="0.7"/><polyline points="25.05,33.79 29.04,26.75" stroke="rgba(70,210,170,0.55)" stroke-width="0.7"/><polyline points="28.6,-6.49 33.1,-13.87" stroke="rgba(70,210,170,0.55)" stroke-width="0.7"/><polyline points="25.05,33.79 28.6,-6.49" stroke="rgba(70,210,170,0.55)" stroke-width="0.7"/><polyline points="29.04,26.75 30.07,19.18" stroke="rgba(70,210,170,0.55)" stroke-width="0.7"/><polyline points="33.1,-13.87 34.2,-21.77" stroke="rgba(70,210,170,0.55)" stroke-width="0.7"/><polyline points="29.04,26.75 33.1,-13.87" stroke="rgba(70,210,170,0.55)" stroke-width="0.7"/><polyline points="30.07,19.18 28.17,11.83" stroke="rgba(70,210,170,0.55)" stroke-width="0.7"/><polyline points="34.2,-21.77 31.97,-29.4" stroke="rgba(70,210,170,0.55)" stroke-width="0.7"/><polyline points="30.07,19.18 34.2,-21.77" stroke="rgba(70,210,170,0.55)" stroke-width="0.7"/><polyline points="28.17,11.83 23.65,5.39" stroke="rgba(70,210,170,0.55)" stroke-width="0.7"/><polyline points="31.97,-29.4 26.79,-36.06" stroke="rgba(70,210,170,0.55)" stroke-width="0.7"/><polyline points="28.17,11.83 31.97,-29.4" stroke="rgba(70,210,170,0.55)" stroke-width="0.7"/><polyline points="23.65,5.39 17.01,0.4" stroke="rgba(70,210,170,0.55)" stroke-width="0.7"/><polyline points="26.79,-36.06 19.24,-41.21" stroke="rgba(70,210,170,0.55)" stroke-width="0.7"/><polyline points="23.65,5.39 26.79,-36.06" stroke="rgba(70,210,170,0.55)" stroke-width="0.7"/><polyline points="17.01,0.4 8.9,-2.75" stroke="rgba(70,210,170,0.55)" stroke-width="0.7"/><polyline points="19.24,-41.21 10.05,-44.45" stroke="rgba(70,210,170,0.55)" stroke-width="0.7"/><polyline points="17.01,0.4 19.24,-41.21" stroke="rgba(70,210,170,0.55)" stroke-width="0.7"/><polyline points="8.9,-2.75 0.03,-3.83" stroke="rgba(70,210,170,0.55)" stroke-width="0.7"/><polyline points="10.05,-44.45 0.03,-45.56" stroke="rgba(70,210,170,0.55)" stroke-width="0.7"/><polyline points="8.9,-2.75 10.05,-44.45" stroke="rgba(70,210,170,0.55)" stroke-width="0.7"/><polyline points="0.03,-3.83 -8.85,-2.76" stroke="rgba(70,210,170,0.55)" stroke-width="0.7"/><polyline points="0.03,-45.56 -10,-44.46" stroke="rgba(70,210,170,0.55)" stroke-width="0.7"/><polyline points="0.03,-3.83 0.03,-45.56" stroke="rgba(70,210,170,0.55)" stroke-width="0.7"/><polyline points="-8.85,-2.76 -16.97,0.38" stroke="rgba(70,210,170,0.55)" stroke-width="0.7"/><polyline points="-10,-44.46 -19.19,-41.23" stroke="rgba(70,210,170,0.55)" stroke-width="0.7"/><polyline points="-8.85,-2.76 -10,-44.46" stroke="rgba(70,210,170,0.55)" stroke-width="0.7"/><polyline points="-16.97,0.38 -23.62,5.36" stroke="rgba(70,210,170,0.55)" stroke-width="0.7"/><polyline points="-19.19,-41.23 -26.75,-36.09" stroke="rgba(70,210,170,0.55)" stroke-width="0.7"/><polyline points="-16.97,0.38 -19.19,-41.23" stroke="rgba(70,210,170,0.55)" stroke-width="0.7"/><polyline points="-23.62,5.36 -28.15,11.79" stroke="rgba(70,210,170,0.55)" stroke-width="0.7"/><polyline points="-26.75,-36.09 -31.95,-29.44" stroke="rgba(70,210,170,0.55)" stroke-width="0.7"/><polyline points="-23.62,5.36 -26.75,-36.09" stroke="rgba(70,210,170,0.55)" stroke-width="0.7"/><polyline points="-28.15,11.79 -30.07,19.14" stroke="rgba(70,210,170,0.55)" stroke-width="0.7"/><polyline points="-31.95,-29.44 -34.19,-21.81" stroke="rgba(70,210,170,0.55)" stroke-width="0.7"/><polyline points="-28.15,11.79 -31.95,-29.44" stroke="rgba(70,210,170,0.55)" stroke-width="0.7"/><polyline points="-30.07,19.14 -29.05,26.71" stroke="rgba(70,210,170,0.55)" stroke-width="0.7"/><polyline points="-34.19,-21.81 -33.11,-13.91" stroke="rgba(70,210,170,0.55)" stroke-width="0.7"/><polyline points="-30.07,19.14 -34.19,-21.81" stroke="rgba(70,210,170,0.55)" stroke-width="0.7"/><polyline points="-29.05,26.71 -25.08,33.75" stroke="rgba(70,210,170,0.55)" stroke-width="0.7"/><polyline points="-33.11,-13.91 -28.64,-6.53" stroke="rgba(70,210,170,0.55)" stroke-width="0.7"/><polyline points="-29.05,26.71 -33.11,-13.91" stroke="rgba(70,210,170,0.55)" stroke-width="0.7"/><polyline points="-25.08,33.75 -18.44,39.49" stroke="rgba(70,210,170,0.55)" stroke-width="0.7"/><polyline points="-28.64,-6.53 -21.09,-0.5" stroke="rgba(70,210,170,0.55)" stroke-width="0.7"/><polyline points="-25.08,33.75 -28.64,-6.53" stroke="rgba(70,210,170,0.55)" stroke-width="0.7"/><circle cx="-18.44" cy="39.49" r="1.2" fill="rgba(70,210,170,0.85)" stroke="none"/><circle cx="-9.78" cy="43.24" r="1.2" fill="rgba(70,210,170,0.85)" stroke="none"/><circle cx="-0.03" cy="44.56" r="1.2" fill="rgba(70,210,170,0.85)" stroke="none"/><circle cx="9.73" cy="43.26" r="1.2" fill="rgba(70,210,170,0.85)" stroke="none"/><circle cx="18.4" cy="39.52" r="1.2" fill="rgba(70,210,170,0.85)" stroke="none"/><circle cx="25.05" cy="33.79" r="1.2" fill="rgba(70,210,170,0.85)" stroke="none"/><circle cx="29.04" cy="26.75" r="1.2" fill="rgba(70,210,170,0.85)" stroke="none"/><circle cx="30.07" cy="19.18" r="1.2" fill="rgba(70,210,170,0.85)" stroke="none"/><circle cx="28.17" cy="11.83" r="1.2" fill="rgba(70,210,170,0.85)" stroke="none"/><circle cx="23.65" cy="5.39" r="1.2" fill="rgba(70,210,170,0.85)" stroke="none"/><circle cx="17.01" cy="0.4" r="1.2" fill="rgba(70,210,170,0.85)" stroke="none"/><circle cx="8.9" cy="-2.75" r="1.2" fill="rgba(70,210,170,0.85)" stroke="none"/><circle cx="0.03" cy="-3.83" r="1.2" fill="rgba(70,210,170,0.85)" stroke="none"/><circle cx="-8.85" cy="-2.76" r="1.2" fill="rgba(70,210,170,0.85)" stroke="none"/><circle cx="-16.97" cy="0.38" r="1.2" fill="rgba(70,210,170,0.85)" stroke="none"/><circle cx="-23.62" cy="5.36" r="1.2" fill="rgba(70,210,170,0.85)" stroke="none"/><circle cx="-28.15" cy="11.79" r="1.2" fill="rgba(70,210,170,0.85)" stroke="none"/><circle cx="-30.07" cy="19.14" r="1.2" fill="rgba(70,210,170,0.85)" stroke="none"/><circle cx="-29.05" cy="26.71" r="1.2" fill="rgba(70,210,170,0.85)" stroke="none"/><circle cx="-25.08" cy="33.75" r="1.2" fill="rgba(70,210,170,0.85)" stroke="none"/><circle cx="-21.09" cy="-0.5" r="1.2" fill="rgba(70,210,170,0.85)" stroke="none"/><circle cx="-11.2" cy="3.46" r="1.2" fill="rgba(70,210,170,0.85)" stroke="none"/><circle cx="-0.03" cy="4.84" r="1.2" fill="rgba(70,210,170,0.85)" stroke="none"/><circle cx="11.14" cy="3.47" r="1.2" fill="rgba(70,210,170,0.85)" stroke="none"/><circle cx="21.04" cy="-0.47" r="1.2" fill="rgba(70,210,170,0.85)" stroke="none"/><circle cx="28.6" cy="-6.49" r="1.2" fill="rgba(70,210,170,0.85)" stroke="none"/><circle cx="33.1" cy="-13.87" r="1.2" fill="rgba(70,210,170,0.85)" stroke="none"/><circle cx="34.2" cy="-21.77" r="1.2" fill="rgba(70,210,170,0.85)" stroke="none"/><circle cx="31.97" cy="-29.4" r="1.2" fill="rgba(70,210,170,0.85)" stroke="none"/><circle cx="26.79" cy="-36.06" r="1.2" fill="rgba(70,210,170,0.85)" stroke="none"/><circle cx="19.24" cy="-41.21" r="1.2" fill="rgba(70,210,170,0.85)" stroke="none"/><circle cx="10.05" cy="-44.45" r="1.2" fill="rgba(70,210,170,0.85)" stroke="none"/><circle cx="0.03" cy="-45.56" r="1.2" fill="rgba(70,210,170,0.85)" stroke="none"/><circle cx="-10" cy="-44.46" r="1.2" fill="rgba(70,210,170,0.85)" stroke="none"/><circle cx="-19.19" cy="-41.23" r="1.2" fill="rgba(70,210,170,0.85)" stroke="none"/><circle cx="-26.75" cy="-36.09" r="1.2" fill="rgba(70,210,170,0.85)" stroke="none"/><circle cx="-31.95" cy="-29.44" r="1.2" fill="rgba(70,210,170,0.85)" stroke="none"/><circle cx="-34.19" cy="-21.81" r="1.2" fill="rgba(70,210,170,0.85)" stroke="none"/><circle cx="-33.11" cy="-13.91" r="1.2" fill="rgba(70,210,170,0.85)" stroke="none"/><circle cx="-28.64" cy="-6.53" r="1.2" fill="rgba(70,210,170,0.85)" stroke="none"/></g></svg>